<svg width="174" height="79" viewBox="0 0 174 79" fill="none" xmlns="http://www.w3.org/2000/svg">
<path d="M41.3992 10.8004C41.3992 10.1004 40.7992 8.20039 40.2992 7.40039C39.9992 6.90039 39.4992 6.20039 39.3992 5.80039C38.3992 4.90039 37.3992 4.2004 36.3992 3.7004C35.2992 3.00039 33.7992 3.10039 32.9992 1.90039C32.9992 2.20039 33.2992 2.40039 32.7992 2.40039C32.2992 2.40039 30.2992 1.70039 28.9992 1.20039C28.6992 0.900398 28.5992 0.700394 28.5992 0.600395L27.9992 0.800392H27.6992C26.4992 0.700393 23.6992 0.400391 23.2992 0.400391C20.1992 0.400391 16.3992 0.800391 13.0992 3.10039C12.6992 3.40039 12.0992 3.10039 11.5992 3.40039C10.7992 4.10039 9.69922 5.1004 9.69922 5.6004C9.69922 6.30039 11.1992 7.90039 11.1992 8.40039C11.1992 8.90039 9.69922 12.3004 9.39922 14.0004C9.19922 14.3004 9.19922 14.7004 9.39922 15.0004C8.29922 19.4004 6.89922 25.9004 6.39922 28.6004L1.59922 52.3004C0.899219 55.0004 0.199219 60.5004 0.199219 60.8004C0.199219 61.5004 0.599219 64.1004 1.09922 65.6004C1.99922 66.4004 2.99922 67.1004 3.49922 67.5004C4.29922 70.4004 6.69922 74.9004 9.79922 75.7004C10.1992 75.8004 9.59922 76.3004 10.2992 76.3004C10.9992 76.3004 10.4992 76.0004 11.1992 76.0004C11.6992 76.0004 13.1992 76.8004 13.8992 76.8004C14.3992 76.8004 15.0992 76.3004 15.5992 76.3004C15.8992 76.3004 20.0992 74.3004 21.1992 73.2004C21.9992 72.4004 23.1992 71.3004 23.4992 70.6004C24.5992 69.1004 25.4992 67.7004 26.1992 66.3004C26.9992 64.7004 27.4992 62.6004 27.7992 61.0004C28.1992 59.9004 28.1992 57.9004 28.1992 57.4004C28.1992 56.9004 28.1992 54.5004 27.7992 53.2004C27.2992 51.1004 26.8992 49.5004 24.9992 47.1004C22.2992 43.8004 16.2992 38.6004 16.2992 38.0004C16.1992 36.1004 21.9992 33.2004 21.9992 33.2004C25.7992 30.0004 31.0992 25.6004 32.9992 23.7004C35.4992 21.0004 39.0992 18.0004 40.2992 13.6004C40.2992 13.3004 41.3992 11.3004 41.3992 10.8004ZM32.3992 7.6004C31.5992 9.50039 29.8992 11.7004 28.2992 13.4004C27.8992 13.9004 26.9992 14.6004 26.2992 15.3004C26.1992 15.4004 26.2992 16.2004 25.8992 16.5004C23.4992 19.3004 21.0992 21.7004 18.3992 24.2004C18.0992 24.3004 16.4992 24.9004 16.1992 26.0004C15.6992 25.3004 15.8992 23.6004 16.1992 22.8004C16.4992 18.8004 16.7992 14.5004 17.1992 10.4004C17.6992 10.4004 18.4992 9.40039 19.5992 9.10039C22.7992 8.3004 24.8992 7.30039 27.6992 7.30039C28.1992 7.30039 28.6992 7.50039 29.1992 7.50039C29.6992 7.50039 29.2992 7.0004 29.9992 7.0004C30.4992 7.0004 31.5992 7.30039 32.3992 7.6004ZM20.5992 53.2004C20.5992 53.5004 20.4992 54.5004 20.3992 56.1004C20.2992 57.6004 19.9992 58.9004 19.5992 60.0004C19.0992 61.6004 18.0992 62.4004 17.1992 63.9004C16.8992 64.3004 16.9992 64.5004 16.8992 64.6004C15.7992 65.3004 14.7992 66.5004 13.8992 67.3004C12.9992 68.2004 11.4992 68.5004 10.2992 69.0004C10.1992 68.1004 10.3992 66.9004 10.8992 65.6004C10.7992 65.5004 10.4992 65.6004 10.0992 66.0004C10.0992 64.0004 9.79922 62.1004 9.79922 60.2004C9.49922 60.5004 9.19922 60.3004 8.49922 60.7004C8.39922 60.3004 8.59922 60.2004 8.59922 59.7004L7.19922 60.9004V58.4004C7.49922 58.1004 7.69922 58.3004 7.79922 57.9004C8.59922 55.4004 9.49922 52.1004 9.79922 50.2004C10.5992 47.0004 11.3992 44.1004 12.1992 40.6004C15.2992 43.1004 17.3992 45.3004 18.6992 47.0004C19.9992 48.7004 20.5992 50.7004 20.5992 53.2004Z" fill="black"/>
<path d="M64.0234 43.3004C63.5234 42.5004 63.3234 41.6004 62.9234 41.1004C60.6234 38.3004 56.2234 36.6004 53.3234 36.6004C50.1234 36.6004 44.6234 40.8004 43.6234 43.3004C43.6234 41.8004 44.0234 40.9004 43.9234 39.8004C43.8234 38.3004 43.4234 36.9004 42.9234 35.4004C42.4234 34.1004 40.4234 32.6004 39.3234 32.6004H38.1234C37.6234 34.5004 37.5234 36.7004 37.2234 38.6004C36.9234 41.5004 36.5234 44.5004 36.2234 46.8004C35.9234 50.7004 35.2234 54.4004 34.3234 58.1004C34.1234 60.8004 32.5234 66.3004 32.5234 66.9004C32.5234 68.5004 33.5234 70.0004 34.2234 72.1004C35.3234 71.8004 34.9234 73.1004 35.3234 73.5004C36.2234 73.9004 37.7234 74.6004 38.1234 74.6004C38.8234 74.6004 39.4234 74.4004 40.0234 74.0004C39.1234 71.2004 40.4234 67.9004 41.7234 65.2004C42.1234 64.4004 42.0234 63.4004 42.5234 62.7004C43.2234 62.0004 43.8234 61.5004 44.2234 60.6004C44.3234 60.5004 44.0234 60.3004 44.0234 59.9004C45.0234 58.6004 45.8234 57.3004 46.4234 56.2004C46.4234 56.1004 45.7234 55.9004 46.0234 55.5004C46.0234 55.4004 46.1234 55.3004 46.3234 55.3004H46.4234C46.8234 55.3004 46.8234 55.1004 47.1234 55.1004C47.1234 54.7004 46.7234 54.6004 46.8234 54.3004C46.8234 54.3004 46.9234 54.2004 47.1234 53.9004C47.2234 53.8004 47.3234 53.8004 47.4234 53.8004C47.2234 53.6004 47.3234 53.2004 47.6234 52.6004C47.9234 52.6004 48.0234 52.8004 48.0234 53.1004C50.5234 49.2004 53.8234 44.5004 57.8234 43.0004C58.1234 44.3004 58.2234 45.2004 58.3234 45.9004C60.2234 45.5004 61.4234 45.9004 62.5234 45.9004C62.1234 45.0004 63.6234 44.2004 64.0234 43.3004Z" fill="black"/>
<path d="M102.181 60.6004C100.281 61.7004 98.2813 63.2004 96.2813 63.7004L92.6813 64.7004C91.1813 65.0004 90.2813 65.2004 89.9813 65.2004C89.6813 65.2004 89.4813 65.1004 89.2813 65.0004C88.7813 64.9004 88.5813 64.6004 88.5813 64.1004C88.5813 63.3004 88.9813 60.0004 89.3813 57.9004C89.3813 57.8004 89.4813 57.6004 89.6813 57.5004L89.7813 57.3004C90.2813 54.8004 91.1813 52.0004 92.0813 49.9004C92.5813 48.4004 94.0813 46.0004 94.0813 45.6004C94.0813 44.8004 93.3813 42.7004 92.6813 41.8004C90.7813 41.3004 90.0813 39.9004 89.7813 39.9004C89.2813 39.9004 89.8813 40.2004 89.3813 40.2004C88.6813 40.2004 88.6813 39.7004 88.2813 39.4004C88.2813 39.7004 88.5813 40.2004 88.1813 40.2004C87.6813 39.7004 86.9813 39.5004 86.5813 39.1004C85.4813 40.6004 84.3813 42.7004 83.6813 44.0004C79.5813 52.0004 73.3813 58.4004 66.6813 66.0004H66.4813V65.3004C66.9813 63.8004 67.1813 62.4004 67.9813 61.2004C67.6813 60.7004 67.7812 60.3004 67.7812 60.0004C68.8813 57.5004 70.0813 55.3004 70.8813 53.3004C71.6813 51.4004 72.7813 49.2004 73.5813 47.5004C75.0813 44.0004 77.6813 39.7004 77.6813 37.2004C77.6813 36.5004 77.3813 36.1004 77.3813 35.7004C76.8813 34.9004 75.8813 34.0004 75.7813 33.2004C74.9813 33.5004 74.4813 32.9004 73.7812 32.9004C69.1813 32.9004 67.8813 39.2004 65.7812 42.9004C65.6812 43.3004 65.8813 43.3004 65.8813 43.7004C65.5813 44.1004 65.0813 44.1004 64.9813 44.5004C64.6813 45.4004 64.7813 46.6004 64.2812 47.1004C63.8812 47.4004 63.1813 48.1004 62.7812 49.0004C62.6813 49.5004 62.9813 50.3004 62.9813 50.8004C62.6813 52.0004 62.1812 53.3004 61.2812 54.2004C60.4812 58.7004 59.2812 61.5004 59.2812 66.2004C59.2812 67.0004 59.5813 68.9004 59.9813 69.8004C60.0813 70.6004 61.0812 71.7004 61.5812 72.2004C62.4812 73.1004 63.7812 73.7004 64.1812 74.6004C65.2812 74.6004 66.4813 74.9004 67.3813 74.9004C67.1813 74.8004 67.0813 74.7004 67.0813 74.6004L67.2812 74.5004C68.1813 74.1004 68.8812 73.6004 69.2812 73.3004C72.1813 67.8004 76.3813 63.4004 79.9813 59.0004C80.2813 59.5004 80.3813 60.1004 80.3813 60.6004C80.3813 61.3004 80.0813 62.7004 80.4813 63.4004C81.3813 65.5004 82.3813 68.2004 83.5813 70.6004C83.9813 71.3004 85.0813 72.2004 85.4813 72.5004C87.5813 73.3004 90.2813 74.2004 92.6813 74.2004C93.3813 74.2004 95.8813 72.8004 96.9813 71.9004C97.8813 71.4004 98.3813 70.7004 98.6813 70.3004C99.0813 69.9004 98.9813 69.4004 99.2813 69.1004C99.5813 69.4004 98.8813 69.6004 99.6813 69.6004C100.381 69.6004 100.481 69.2004 100.481 68.8004C100.081 69.2004 99.7813 69.3004 99.3813 68.9004C100.081 68.2004 100.581 67.7004 100.881 67.3004C100.681 67.2004 100.681 66.9004 100.881 66.6004C101.381 65.7004 101.881 64.9004 102.381 64.2004C101.881 63.7004 101.681 63.1004 101.281 62.6004C101.981 61.9004 102.581 61.4004 102.881 61.2004L102.181 60.6004Z" fill="black"/>
<path d="M129.616 34.2004C129.616 33.5004 128.816 31.9004 128.016 31.4004C128.016 31.0004 128.016 30.7004 127.916 30.3004C126.916 29.3004 125.416 28.2004 123.516 27.1004C121.616 25.9004 119.916 25.4004 118.316 25.6004C117.916 25.3004 118.016 25.2004 117.216 25.2004C114.716 25.2004 114.416 34.1004 114.416 35.3004C114.116 37.4004 113.816 38.6004 113.816 39.9004C113.816 40.4004 114.116 41.0004 114.116 41.5004C114.116 43.1004 113.416 45.0004 113.416 46.5004C113.416 51.0004 113.916 61.3004 111.516 67.0004C111.016 68.5004 110.216 70.2004 109.016 71.3004C107.016 70.0004 107.016 67.4004 105.916 65.5004C105.516 65.5004 105.116 65.7004 104.816 66.1004L104.416 65.7004C104.916 64.6004 103.816 63.8004 103.416 63.0004C103.516 62.5004 103.416 61.9004 103.016 61.2004C103.916 60.3004 103.516 60.5004 103.016 60.0004C103.016 59.1004 103.316 58.4004 102.916 58.4004C102.516 58.0004 102.316 58.1004 102.016 57.7004C102.116 57.0004 102.516 56.2004 102.416 55.7004C102.216 55.8004 101.916 55.9004 101.616 55.9004C100.416 57.6004 99.5156 60.8004 99.5156 62.0004C99.5156 66.1004 104.016 73.8004 107.216 75.7004C107.616 75.7004 110.016 78.5004 111.816 78.5004C112.616 78.5004 112.316 78.1004 112.616 78.4004C113.016 78.5004 112.816 78.8004 113.616 78.8004C119.516 78.8004 120.616 69.4004 121.116 65.7004C122.416 58.1004 121.616 50.3004 122.516 42.8004C122.616 42.4004 122.816 42.1004 123.316 41.9004C124.216 42.8004 125.816 43.5004 126.316 43.5004C127.016 43.5004 128.016 43.2004 128.416 42.8004C129.316 40.9004 129.516 37.4004 129.216 35.4004C129.516 35.1004 129.616 34.9004 129.616 34.2004ZM105.716 63.8004H105.316V65.3004H105.716V63.8004Z" fill="black"/>
<path d="M173.673 63.3004C172.773 63.7004 171.673 64.2004 170.773 64.3004C168.973 64.6004 163.773 67.3004 163.073 67.3004C162.373 67.3004 162.573 66.9004 161.373 67.3004C160.873 66.4004 160.773 65.1004 160.773 64.6004L162.473 50.5004C162.473 47.7004 161.973 45.2004 158.373 42.7004C157.473 42.2004 155.973 42.4004 155.173 42.3004C154.673 42.2004 154.173 41.2004 153.673 41.2004C152.773 41.2004 146.173 48.6004 145.673 49.3004C144.873 50.2004 143.173 51.5004 142.373 52.4004C141.673 53.1004 140.773 54.8004 139.873 54.8004L153.973 16.5004C154.473 15.4004 154.773 13.6004 154.773 12.9004C154.773 12.0004 154.573 9.10039 153.773 7.6004C153.673 7.6004 153.473 7.4004 153.273 7.0004C152.473 7.0004 151.473 6.20039 150.673 6.20039C147.973 6.20039 147.573 8.00039 146.073 11.1004C144.473 15.3004 141.473 22.2004 140.173 26.2004C140.473 26.7004 140.473 27.2004 140.273 27.8004C139.173 30.3004 137.873 34.2004 137.373 36.9004C137.273 37.1004 137.073 37.3004 136.773 37.6004C136.673 38.4004 135.973 39.5004 135.973 40.4004C135.973 40.5004 134.473 44.2004 133.173 48.5004C132.473 50.6004 131.873 53.3004 131.373 56.7004C130.873 60.1004 130.573 62.3004 130.573 63.4004C130.573 64.2004 131.073 66.5004 131.073 68.0004C131.973 68.9004 132.073 70.1004 132.573 70.9004C133.273 72.0004 133.873 72.6004 134.373 73.7004C135.273 73.2004 136.173 72.6004 136.673 72.6004C137.373 72.6004 136.973 72.7004 137.373 72.7004C137.173 72.7004 137.073 72.7004 137.073 72.6004V72.5004C139.673 70.2004 142.073 66.9004 144.273 62.8004C146.473 58.7004 148.973 55.7004 151.873 53.8004L152.073 55.2004C151.673 57.5004 151.673 59.5004 151.773 61.6004C151.873 63.7004 152.273 65.9004 152.973 68.1004C153.373 68.9004 154.273 70.0004 154.573 70.8004C155.073 71.5004 155.473 72.6004 155.773 73.1004C156.273 73.4004 159.073 75.5004 159.573 75.5004C160.373 75.5004 162.373 75.8004 163.073 75.8004C163.873 75.8004 165.773 74.4004 166.573 74.0004C166.473 74.0004 166.273 73.9004 165.973 73.6004C167.473 72.5004 168.073 71.4004 168.873 71.0004C169.173 70.5004 169.073 69.5004 169.473 69.2004C169.873 68.4004 170.873 68.3004 171.373 67.8004C172.073 67.1004 172.273 65.6004 173.073 65.2004C172.273 65.6004 171.373 65.5004 170.573 66.0004C170.473 65.9004 170.373 65.9004 170.373 65.8004V65.6004C171.873 64.7004 172.973 64.0004 173.673 63.3004Z" fill="black"/>
</svg>
