<svg width="277" height="70" viewBox="0 0 277 70" fill="none" xmlns="http://www.w3.org/2000/svg">
<path d="M35.0996 9.3996C35.0996 11.1996 34.3996 12.6996 34.3996 13.7996C34.3996 14.2996 34.5996 14.6996 34.7996 15.0996C36.0996 16.2996 36.4996 16.9996 38.3996 16.9996C40.4996 16.9996 42.2996 14.2996 42.2996 12.1996C42.2996 10.9996 42.0996 9.39961 41.9996 8.59961C41.8996 7.59961 40.1996 5.09961 38.5996 3.59961C36.9996 2.0996 35.0996 1.49961 34.0996 1.39961C32.9996 1.19961 30.3996 0.599609 28.2996 0.599609C26.2996 0.599609 23.7996 2.09961 21.7996 2.09961C19.7996 2.09961 18.1996 3.0996 17.1996 4.09961C16.0996 4.99961 11.5996 7.0996 10.7996 9.4996C9.89961 11.9996 8.19961 12.1996 7.39961 13.0996C6.59961 14.0996 4.69961 17.5996 3.99961 19.2996C3.29961 20.9996 1.09961 25.2996 1.09961 28.5996C1.09961 31.9996 0.399609 35.1996 0.299609 36.6996C0.199609 37.4996 0.0996094 38.8996 0.0996094 40.2996C0.0996094 41.4996 0.199609 42.5996 0.399609 43.5996C1.09961 45.7996 1.59961 47.7996 1.59961 48.9996C1.59961 50.0996 1.89961 51.4996 2.89961 53.4996C3.89961 55.5996 8.49961 61.7996 11.1996 63.1996C13.7996 64.5996 16.8996 66.3996 18.8996 66.9996C20.3996 67.3996 23.0996 67.8996 25.3996 67.8996C26.1996 67.8996 26.9996 67.8996 27.5996 67.6996C28.3996 67.4996 29.4996 67.4996 30.4996 67.4996C32.3996 67.4996 34.2996 67.4996 34.9996 66.7996C36.1996 65.6996 39.8996 65.1996 41.1996 64.2996C42.4996 63.2996 43.9996 62.6996 45.0996 61.4996C46.2996 60.1996 47.7996 58.6996 48.3996 57.7996C48.4996 57.6996 48.5996 57.4996 48.5996 57.2996C48.5996 56.2996 47.2996 54.6996 46.5996 54.6996C45.6996 54.6996 44.4996 56.1996 43.5996 57.1996C42.5996 58.2996 41.1996 59.2996 40.2996 59.8996C39.3996 60.3996 37.8996 61.4996 36.9996 61.8996C34.7996 62.9996 31.1996 62.9996 28.6996 62.9996C26.7996 62.9996 23.4996 62.9996 20.9996 62.2996C18.6996 61.6996 16.7996 60.3996 15.7996 59.6996C15.1996 59.6996 11.8996 56.3996 11.4996 55.6996C10.3996 53.5996 9.19961 51.2996 8.89961 50.2996C8.49961 49.0996 6.89961 45.3996 6.89961 43.4996C6.89961 41.1996 7.09961 38.8996 7.09961 37.4996C7.09961 37.0996 7.09961 36.6996 6.99961 36.4996C6.99961 36.2996 6.89961 35.8996 6.89961 35.4996C6.89961 34.1996 7.19961 32.1996 7.19961 30.6996C7.19961 29.1996 8.49961 24.7996 8.99961 23.6996C10.6996 19.1996 11.9996 17.9996 14.3996 13.9996C15.0996 12.8996 15.9996 12.0996 17.0996 10.5996C18.0996 9.0996 21.1996 8.09961 22.6996 6.99961C24.1996 5.79961 27.4996 5.19961 30.2996 5.19961C31.1996 5.19961 35.0996 6.6996 35.0996 9.3996Z" fill="black"/>
<path d="M53.9863 48.6996C54.1863 47.5996 56.7863 43.1996 57.2863 41.6996C58.1863 39.2996 59.3863 36.4996 59.6863 34.5996C59.8863 32.8996 60.3863 32.3996 61.1863 30.6996C61.9863 28.7996 63.2863 24.4996 63.2863 22.6996C63.2863 22.0996 63.1863 21.6996 63.1863 21.1996C63.1863 19.6996 63.4863 17.4996 63.5863 15.9996V15.4996C63.7863 14.4996 63.9863 13.0996 63.9863 11.6996C63.9863 11.1996 63.9863 10.6996 63.8863 10.1996C63.5863 9.0996 63.5863 8.09961 63.0863 7.39961C61.7863 5.19961 58.6863 3.79961 57.2863 3.79961C55.7863 3.79961 51.3863 5.7996 51.0863 8.69961C50.8863 11.5996 48.9863 12.8996 48.1863 14.6996C47.4863 16.5996 46.5863 23.0996 46.5863 25.5996C46.5863 27.6996 45.8863 32.5996 45.8863 36.1996C45.8863 36.8996 45.8863 37.4996 45.9863 37.9996C46.1863 40.8996 46.1863 42.6996 46.1863 44.8996C46.1863 45.9996 45.8863 46.8996 45.7863 47.7996C45.3863 49.7996 45.2863 51.9996 45.2863 54.3996C45.2863 55.1996 45.2863 55.9996 45.3863 56.7996C45.8863 59.2996 45.9863 61.0996 45.9863 65.1996C45.9863 65.7996 45.8863 66.3996 45.8863 66.9996C45.8863 67.9996 45.9863 68.8996 46.2863 69.3996C46.7863 69.7996 47.3863 69.9996 48.0863 69.9996C48.6863 69.9996 49.3863 69.8996 49.7863 69.6996C50.9863 69.2996 52.4863 68.1996 52.5863 66.5996C52.5863 64.8996 53.3863 64.5996 53.4863 63.0996C53.4863 62.7996 53.5863 62.3996 53.5863 62.1996C53.5863 61.6996 53.4863 61.2996 53.4863 60.8996C53.4863 60.5996 54.6863 59.3996 54.7863 58.8996C55.3863 57.6996 56.5863 55.2996 57.9863 52.9996C58.6863 51.8996 58.8863 50.7996 59.4863 49.8996C60.0863 48.9996 61.0863 48.1996 61.4863 47.4996C63.9863 43.4996 64.6863 42.1996 65.2863 41.6996C66.0863 41.1996 67.0863 39.7996 68.0863 39.6996C69.1863 39.6996 69.4863 40.5996 69.4863 43.2996C69.4863 45.3996 68.9863 48.9996 68.9863 52.6996C68.9863 53.3996 68.8863 54.1996 68.8863 54.8996C68.8863 56.3996 69.0863 57.7996 69.7863 59.1996C70.8863 61.4996 72.7863 64.4996 74.2863 65.3996C75.6863 66.1996 77.1863 66.8996 79.1863 66.8996C82.2863 66.8996 84.2863 66.2996 85.6863 65.0996C87.1863 63.7996 89.0863 63.1996 89.8863 61.4996C90.7863 59.7996 92.1863 58.5996 92.1863 56.9996C92.1863 55.2996 91.1863 54.1996 89.9863 54.1996C88.5863 54.1996 88.5863 56.0996 87.5863 57.6996C86.5863 58.9996 84.9863 59.3996 84.0863 61.0996C83.6863 61.8996 82.6863 62.0996 81.7863 62.0996C81.2863 62.0996 80.8863 61.9996 80.5863 61.9996C79.7863 61.9996 77.5863 60.9996 77.1863 59.8996C77.1863 59.7996 77.0863 59.6996 77.0863 59.5996C77.0863 59.3996 76.8863 59.2996 76.8863 59.0996C76.5863 57.8996 76.0863 55.7996 76.0863 53.9996C76.0863 52.5996 75.8863 49.9996 75.8863 46.9996C75.8863 44.8996 75.9863 45.4996 76.0863 42.8996C76.1863 41.8996 76.1863 40.9996 76.1863 40.1996C76.1863 38.6996 76.0863 37.3996 75.4863 36.5996C74.5863 35.2996 71.1863 34.4996 69.7863 34.4996C68.1863 34.4996 66.0863 35.0996 64.3863 36.8996C62.5863 38.6996 60.2863 41.3996 59.4863 43.2996C58.6863 45.1996 56.2863 48.3996 55.5863 49.5996C54.7863 50.5996 53.3863 54.0996 53.3863 54.0996C53.3863 54.0996 53.7863 49.7996 53.9863 48.6996ZM51.8863 42.6996C51.6863 42.6996 51.6863 42.5996 51.6863 42.3996V41.5996C51.5863 40.5996 51.6863 39.1996 51.4863 37.8996C51.4863 35.2996 51.4863 33.4996 51.8863 29.7996C52.2863 25.8996 52.0863 23.8996 52.2863 21.8996C52.4863 19.8996 53.3863 17.9996 53.7863 15.1996C54.3863 12.4996 55.6863 9.9996 56.4863 9.9996C56.6863 9.9996 56.9863 9.8996 57.0863 9.8996C58.0863 9.8996 58.7863 10.3996 58.9863 11.9996C59.0863 12.5996 59.0863 13.0996 59.0863 13.5996C59.0863 15.0996 58.7863 16.2996 58.4863 17.7996C57.9863 19.8996 57.7863 22.7996 57.7863 24.7996C57.6863 26.9996 57.2863 27.7996 56.8863 28.5996C56.5863 28.5996 55.3863 33.2996 54.9863 35.2996C54.4863 38.1996 52.8863 42.6996 51.8863 42.6996Z" fill="black"/>
<path d="M94.2809 15.3996C93.4809 16.2996 91.8809 18.7996 91.8809 19.6996C91.8809 20.6996 92.6809 22.5996 93.2809 23.2996C93.7809 23.5996 94.4809 23.8996 95.2809 23.8996C96.0809 23.8996 96.7809 23.6996 97.2809 23.2996C98.1809 22.2996 99.9809 22.1996 100.781 20.7996C101.281 19.9996 101.581 19.2996 101.581 18.5996C101.581 18.0996 101.381 17.4996 100.881 16.8996C99.6809 15.5996 98.6809 14.6996 97.5809 14.4996C97.3809 14.3996 97.0809 14.3996 96.7809 14.3996C95.8809 14.3996 94.8809 14.6996 94.2809 15.3996ZM93.4809 32.9996C92.2809 32.9996 91.2809 33.0996 90.6809 35.7996C89.9809 38.5996 89.3809 39.9996 88.5809 41.7996C88.0809 43.0996 88.0809 44.2996 88.0809 45.8996C88.0809 46.6996 88.0809 47.5996 87.9809 48.3996C87.8809 49.9996 87.6809 51.4996 87.6809 52.9996C87.6809 54.0996 87.7809 54.9996 88.0809 55.9996C88.5809 57.3996 88.5809 58.5996 88.5809 59.5996C88.5809 60.2996 88.5809 60.8996 88.6809 61.5996C89.1809 63.2996 91.7809 66.5996 93.9809 67.2996C95.7809 67.7996 97.9809 68.1996 99.6809 68.1996C100.181 68.1996 100.681 68.1996 101.081 68.0996C102.681 67.7996 104.081 66.6996 105.781 65.4996C107.481 64.2996 108.881 62.0996 109.581 60.8996C110.181 59.8996 112.081 58.5996 112.081 56.8996C112.081 55.5996 110.681 54.8996 109.881 54.8996C108.981 54.8996 107.981 56.3996 107.581 57.1996C106.581 58.7996 105.581 59.6996 104.781 60.7996C103.881 61.9996 102.881 63.2996 100.581 63.2996C99.0809 63.2996 97.6809 62.7996 96.7809 61.7996C95.8809 60.7996 94.6809 58.8996 94.4809 56.8996C94.4809 55.2996 93.7809 54.1996 93.7809 52.6996C93.7809 52.3996 93.7809 51.9996 93.8809 51.5996C94.0809 50.6996 94.1809 50.0996 94.1809 46.7996C94.1809 44.4996 95.2809 41.1996 95.9809 39.8996C96.6809 38.7996 97.2809 38.3996 97.2809 37.4996C97.2809 37.2996 97.2809 36.4996 97.1809 36.0996C96.6809 34.3996 94.9809 32.9996 93.4809 32.9996Z" fill="black"/>
<path d="M118.663 44.2996C119.363 42.8996 120.263 39.9996 120.663 38.1996C121.263 36.2996 122.663 33.8996 123.363 31.6996C123.963 29.3996 123.763 26.3996 124.363 24.7996C124.863 23.0996 125.063 21.2996 125.163 18.9996C125.163 17.4996 125.263 15.9996 125.263 14.5996C125.263 13.7996 125.263 13.0996 125.163 12.4996C124.963 10.7996 124.063 8.59961 122.663 7.39961C121.663 6.69961 120.663 6.29961 119.763 6.29961C119.163 6.29961 118.663 6.49961 118.163 6.69961C116.463 7.49961 114.763 9.09961 114.463 10.4996C113.963 11.8996 111.763 15.8996 111.063 17.9996C110.563 19.9996 109.363 21.7996 109.363 25.5996C109.363 29.5996 108.963 32.3996 108.963 35.1996C108.963 37.9996 109.163 38.7996 109.163 39.5996C109.163 40.7996 109.063 41.6996 108.963 44.0996C108.963 44.3996 108.863 44.5996 108.863 44.8996C108.763 46.4996 108.663 47.6996 108.663 48.8996C108.663 50.0996 108.763 51.2996 109.063 52.7996C109.863 55.9996 109.463 58.3996 110.763 60.2996C111.963 62.3996 113.663 64.4996 114.463 65.3996C115.063 66.1996 119.763 68.0996 123.163 68.0996C127.163 68.0996 129.863 65.4996 130.663 64.4996C131.363 63.5996 133.463 62.0996 134.163 60.5996C134.963 59.1996 136.163 58.4996 136.163 57.1996C136.163 56.0996 134.463 54.6996 133.663 54.6996C132.863 54.7996 132.363 56.7996 131.263 57.7996C130.463 58.5996 129.863 59.2996 129.063 60.3996C128.363 61.4996 126.263 62.1996 125.763 62.7996C125.363 63.0996 124.963 63.1996 124.363 63.1996C123.863 63.1996 123.163 63.0996 122.263 62.8996C120.463 62.2996 118.163 61.2996 116.963 59.1996C115.863 57.0996 115.163 55.2996 115.163 53.6996C115.163 51.9996 116.663 50.7996 116.663 49.2996C116.663 48.8996 116.463 48.5996 116.463 48.2996C116.463 46.7996 118.163 45.3996 118.663 44.2996ZM115.063 42.8996C114.863 42.8996 114.463 39.8996 114.463 37.8996C114.463 36.7996 114.763 35.8996 114.763 35.0996C114.763 34.3996 114.663 33.5996 114.663 32.8996C114.663 32.0996 114.763 31.0996 114.963 29.9996C115.463 26.9996 115.463 26.0996 115.663 23.8996C115.763 21.7996 116.963 19.0996 117.263 16.7996C117.463 14.5996 118.863 14.2996 119.663 13.5996C119.763 13.3996 119.863 13.3996 119.963 13.3996C120.463 13.3996 120.563 13.8996 120.563 14.4996C120.563 15.2996 119.963 15.7996 119.963 16.3996C119.963 17.0996 120.463 17.8996 120.463 19.4996C120.463 21.7996 119.563 23.4996 119.063 26.0996C118.563 28.4996 119.163 30.6996 118.263 32.1996C117.563 33.5996 117.963 36.7996 117.363 37.9996C116.763 38.9996 115.663 42.8996 115.063 42.8996Z" fill="black"/>
<path d="M152.673 35.8996C152.673 35.9996 150.273 34.5996 149.173 34.2996C148.673 34.0996 146.973 33.6996 145.273 33.6996C144.073 33.6996 142.673 33.8996 141.673 34.4996C139.573 35.7996 137.273 36.7996 136.673 38.3996C136.273 39.9996 133.473 41.8996 132.873 43.2996C132.473 44.6996 131.873 47.4996 131.273 48.2996C130.573 49.1996 130.373 51.1996 129.873 53.7996C129.573 55.3996 129.373 57.1996 129.373 58.8996C129.373 59.9996 129.473 61.0996 129.673 61.9996C130.273 64.2996 131.073 65.7996 132.773 66.6996C134.273 67.6996 136.273 68.7996 138.273 68.7996C140.573 68.7996 140.273 67.8996 141.873 67.6996C143.373 67.4996 145.073 65.8996 145.973 64.9996C146.773 64.0996 149.073 61.9996 150.073 60.5996C150.973 59.2996 152.573 57.3996 153.173 57.3996C153.273 57.3996 156.573 61.7996 157.573 62.3996C159.173 63.4996 159.973 64.5996 161.373 65.1996C162.673 65.8996 165.173 65.7996 166.273 65.8996C167.573 65.8996 168.673 65.7996 169.973 65.2996C171.073 64.8996 172.773 64.1996 173.373 62.6996C174.073 61.1996 176.173 60.4996 176.573 59.5996C176.973 58.6996 178.273 57.0996 178.273 56.3996C178.273 55.6996 177.873 54.5996 176.473 54.5996C175.173 54.5996 173.173 55.5996 172.473 56.7996C171.973 57.8996 169.973 58.6996 169.173 59.5996C168.773 59.9996 167.573 60.7996 166.673 60.7996C166.073 60.7996 165.673 60.0996 165.373 59.9996C164.273 59.9996 162.273 58.9996 161.773 57.8996C160.973 56.3996 159.773 55.3996 159.573 53.5996C159.473 52.3996 159.273 51.0996 159.273 50.1996C159.273 49.7996 159.273 49.3996 159.373 49.1996L160.773 45.4996C161.473 44.3996 163.373 41.6996 163.373 40.3996C163.373 39.0996 164.173 37.5996 164.873 36.4996C165.673 35.1996 165.873 32.1996 167.273 29.3996C168.473 26.8996 169.073 23.7996 169.373 21.9996C169.473 21.0996 169.473 20.2996 169.473 19.4996C169.473 17.7996 169.373 15.9996 169.373 14.4996C169.273 12.0996 169.173 9.49961 168.373 8.49961C167.573 7.49961 166.173 4.69961 164.073 4.69961C161.373 4.69961 159.173 6.09961 158.873 7.69961C158.573 9.39961 157.573 10.7996 156.773 11.2996C155.973 11.7996 154.573 13.6996 154.073 15.3996L152.773 22.4996C152.473 23.9996 152.173 25.2996 152.173 26.6996C152.173 27.4996 152.273 28.2996 152.573 29.1996C152.773 30.6996 152.873 31.8996 152.873 32.9996C152.873 33.8996 152.773 34.7996 152.673 35.8996ZM151.673 39.9996C151.673 41.0996 151.073 41.8996 151.073 43.1996C151.073 44.1996 152.573 45.6996 153.073 46.5996C153.373 46.9996 153.473 47.4996 153.473 47.9996C153.473 48.5996 153.373 49.1996 153.173 49.6996C152.873 50.4996 150.873 52.8996 150.273 53.5996C149.573 54.2996 147.273 57.8996 146.273 58.1996C145.373 58.4996 144.173 61.5996 143.173 61.9996C142.273 62.2996 141.373 63.9996 138.973 63.9996C136.673 63.9996 137.173 62.3996 136.473 59.8996C136.273 58.5996 136.173 57.2996 136.173 56.0996C136.173 54.8996 136.273 53.7996 136.373 52.8996C136.473 51.1996 137.073 48.2996 137.973 46.5996C138.673 44.7996 140.073 42.4996 141.073 40.7996C142.073 39.1996 144.573 38.4996 145.773 38.1996C145.873 38.1996 145.973 38.0996 146.073 38.0996C146.773 37.9996 147.673 37.7996 148.573 37.7996C148.973 37.7996 149.573 37.7996 149.773 37.9996C149.873 37.9996 151.673 39.0996 151.673 39.9996ZM157.673 37.6996C157.673 37.3996 157.873 35.9996 157.873 33.7996C157.873 33.0996 157.773 32.5996 157.773 32.0996C157.773 31.3996 157.773 30.7996 157.873 30.1996C157.973 29.0996 158.373 26.4996 158.373 24.6996C158.373 22.8996 158.773 23.2996 158.973 20.3996C159.073 17.6996 159.573 16.1996 159.973 15.2996C159.973 15.2996 160.973 11.3996 162.573 11.3996C163.573 11.4996 163.773 11.7996 164.173 13.5996C164.373 14.7996 164.673 16.0996 164.673 17.8996C164.673 18.5996 164.673 19.3996 164.473 20.1996C163.573 24.9996 162.673 27.6996 162.273 29.8996C161.873 32.0996 160.873 34.1996 160.473 36.0996C159.973 37.9996 158.673 41.2996 158.473 41.5996C158.073 41.5996 157.773 38.9996 157.673 37.6996Z" fill="black"/>
<path d="M181.586 15.3996C180.786 16.2996 179.186 18.7996 179.186 19.6996C179.186 20.6996 179.986 22.5996 180.586 23.2996C181.086 23.5996 181.786 23.8996 182.586 23.8996C183.386 23.8996 184.086 23.6996 184.586 23.2996C185.486 22.2996 187.286 22.1996 188.086 20.7996C188.586 19.9996 188.886 19.2996 188.886 18.5996C188.886 18.0996 188.686 17.4996 188.186 16.8996C186.986 15.5996 185.986 14.6996 184.886 14.4996C184.686 14.3996 184.386 14.3996 184.086 14.3996C183.186 14.3996 182.186 14.6996 181.586 15.3996ZM180.786 32.9996C179.586 32.9996 178.586 33.0996 177.986 35.7996C177.286 38.5996 176.686 39.9996 175.886 41.7996C175.386 43.0996 175.386 44.2996 175.386 45.8996C175.386 46.6996 175.386 47.5996 175.286 48.3996C175.186 49.9996 174.986 51.4996 174.986 52.9996C174.986 54.0996 175.086 54.9996 175.386 55.9996C175.886 57.3996 175.886 58.5996 175.886 59.5996C175.886 60.2996 175.886 60.8996 175.986 61.5996C176.486 63.2996 179.086 66.5996 181.286 67.2996C183.086 67.7996 185.286 68.1996 186.986 68.1996C187.486 68.1996 187.986 68.1996 188.386 68.0996C189.986 67.7996 191.386 66.6996 193.086 65.4996C194.786 64.2996 196.186 62.0996 196.886 60.8996C197.486 59.8996 199.386 58.5996 199.386 56.8996C199.386 55.5996 197.986 54.8996 197.186 54.8996C196.286 54.8996 195.286 56.3996 194.886 57.1996C193.886 58.7996 192.886 59.6996 192.086 60.7996C191.186 61.9996 190.186 63.2996 187.886 63.2996C186.386 63.2996 184.986 62.7996 184.086 61.7996C183.186 60.7996 181.986 58.8996 181.786 56.8996C181.786 55.2996 181.086 54.1996 181.086 52.6996C181.086 52.3996 181.086 51.9996 181.186 51.5996C181.386 50.6996 181.486 50.0996 181.486 46.7996C181.486 44.4996 182.586 41.1996 183.286 39.8996C183.986 38.7996 184.586 38.3996 184.586 37.4996C184.586 37.2996 184.586 36.4996 184.486 36.0996C183.986 34.3996 182.286 32.9996 180.786 32.9996Z" fill="black"/>
<path d="M217.868 43.8996C217.068 43.0996 215.368 42.5996 213.868 41.4996C213.268 41.0996 212.668 40.5996 212.168 40.0996C213.168 38.4996 214.168 37.2996 214.768 36.4996C215.368 35.6996 216.268 32.6996 216.268 31.4996V30.2996C216.268 29.3996 216.168 28.4996 215.368 27.7996C214.168 26.6996 211.668 25.4996 210.268 25.3996H209.868C208.568 25.3996 207.168 25.6996 206.168 26.0996C205.068 26.4996 202.468 29.4996 202.068 32.8996C201.968 33.5996 201.968 34.1996 201.968 34.7996C201.968 36.9996 202.568 38.1996 203.268 39.2996C203.268 39.2996 203.368 39.3996 203.668 39.8996C203.968 40.4996 204.668 41.2996 205.568 41.9996L205.268 42.5996C204.568 43.6996 203.968 44.3996 202.468 46.2996C200.568 48.6996 200.468 49.1996 199.268 50.9996C198.168 52.6996 196.268 54.4996 196.268 55.5996C196.268 56.8996 196.568 58.5996 197.468 58.5996C198.368 58.5996 199.968 56.6996 200.568 55.6996C201.268 54.5996 202.768 53.6996 203.368 52.6996C204.468 50.7996 205.868 48.9996 206.768 47.6996C207.568 46.6996 208.168 44.8996 208.468 44.3996L209.468 45.0996C210.568 45.9996 211.968 46.4996 212.968 47.0996C214.468 48.0996 213.868 48.8996 214.968 49.9996C215.868 50.9996 216.568 53.1996 216.568 54.1996C216.568 54.3996 216.468 55.6996 216.468 55.7996C216.168 56.3996 215.868 56.3996 215.168 56.3996H214.168C213.368 56.3996 212.668 56.6996 211.668 56.6996C211.168 56.6996 209.468 56.7996 208.768 57.0996C206.568 58.1996 205.768 57.2996 204.868 59.4996C204.268 60.4996 204.168 61.1996 204.168 61.7996C204.168 62.4996 204.168 63.2996 204.668 64.1996C205.268 65.7996 206.568 66.6996 208.568 67.3996C209.068 67.5996 209.668 67.6996 210.168 67.6996H210.668C212.068 67.6996 213.568 67.6996 215.568 67.0996C217.168 66.5996 217.568 65.5996 218.968 64.2996C220.968 62.4996 220.968 60.6996 221.768 60.6996C222.168 60.6996 222.968 60.2996 223.968 60.1996C224.868 60.0996 226.168 60.1996 227.268 59.9996C229.068 59.5996 230.668 58.9996 231.368 58.1996C231.768 57.7996 231.868 57.4996 231.868 57.2996C231.868 57.0996 231.668 56.7996 231.668 56.1996C231.668 55.6996 230.568 54.1996 229.968 54.1996C229.468 54.1996 228.168 55.8996 226.168 55.8996C225.468 55.8996 224.668 56.2996 223.868 56.2996C223.468 56.2996 223.168 56.1996 222.768 55.9996C222.468 55.6996 222.168 54.6996 222.168 52.6996C222.168 50.4996 221.768 49.4996 220.568 48.0996C219.468 46.6996 218.668 44.6996 217.868 43.8996ZM214.768 59.9996C215.468 59.9996 216.068 60.1996 216.068 60.6996C216.068 61.4996 213.968 63.7996 212.068 63.7996C209.968 63.7996 208.868 63.0996 208.868 62.1996C208.868 61.1996 209.668 60.7996 210.768 60.3996C211.968 59.9996 214.168 59.9996 214.768 59.9996ZM208.268 35.4996C208.168 35.0996 207.768 33.8996 207.768 32.8996C207.768 32.4996 207.868 32.1996 207.968 31.8996C208.268 31.0996 209.168 30.5996 209.868 30.5996C210.068 30.5996 210.268 30.5996 210.368 30.6996C210.968 30.9996 211.268 31.8996 211.268 32.6996C211.268 32.8996 211.168 33.0996 211.168 33.2996C210.968 34.0996 210.268 35.1996 209.168 36.8996C208.668 36.2996 208.368 35.7996 208.268 35.4996Z" fill="black"/>
<path d="M238.166 48.6996C238.366 47.5996 240.966 43.1996 241.466 41.6996C242.366 39.2996 243.566 36.4996 243.866 34.5996C244.066 32.8996 244.566 32.3996 245.366 30.6996C246.166 28.7996 247.466 24.4996 247.466 22.6996C247.466 22.0996 247.366 21.6996 247.366 21.1996C247.366 19.6996 247.666 17.4996 247.766 15.9996V15.4996C247.966 14.4996 248.166 13.0996 248.166 11.6996C248.166 11.1996 248.166 10.6996 248.066 10.1996C247.766 9.0996 247.766 8.09961 247.266 7.39961C245.966 5.19961 242.866 3.79961 241.466 3.79961C239.966 3.79961 235.566 5.7996 235.266 8.69961C235.066 11.5996 233.166 12.8996 232.366 14.6996C231.666 16.5996 230.766 23.0996 230.766 25.5996C230.766 27.6996 230.066 32.5996 230.066 36.1996C230.066 36.8996 230.066 37.4996 230.166 37.9996C230.366 40.8996 230.366 42.6996 230.366 44.8996C230.366 45.9996 230.066 46.8996 229.966 47.7996C229.566 49.7996 229.466 51.9996 229.466 54.3996C229.466 55.1996 229.466 55.9996 229.566 56.7996C230.066 59.2996 230.166 61.0996 230.166 65.1996C230.166 65.7996 230.066 66.3996 230.066 66.9996C230.066 67.9996 230.166 68.8996 230.466 69.3996C230.966 69.7996 231.566 69.9996 232.266 69.9996C232.866 69.9996 233.566 69.8996 233.966 69.6996C235.166 69.2996 236.666 68.1996 236.766 66.5996C236.766 64.8996 237.566 64.5996 237.666 63.0996C237.666 62.7996 237.766 62.3996 237.766 62.1996C237.766 61.6996 237.666 61.2996 237.666 60.8996C237.666 60.5996 238.866 59.3996 238.966 58.8996C239.566 57.6996 240.766 55.2996 242.166 52.9996C242.866 51.8996 243.066 50.7996 243.666 49.8996C244.266 48.9996 245.266 48.1996 245.666 47.4996C248.166 43.4996 248.866 42.1996 249.466 41.6996C250.266 41.1996 251.266 39.7996 252.266 39.6996C253.366 39.6996 253.666 40.5996 253.666 43.2996C253.666 45.3996 253.166 48.9996 253.166 52.6996C253.166 53.3996 253.066 54.1996 253.066 54.8996C253.066 56.3996 253.266 57.7996 253.966 59.1996C255.066 61.4996 256.966 64.4996 258.466 65.3996C259.866 66.1996 261.366 66.8996 263.366 66.8996C266.466 66.8996 268.466 66.2996 269.866 65.0996C271.366 63.7996 273.266 63.1996 274.066 61.4996C274.966 59.7996 276.366 58.5996 276.366 56.9996C276.366 55.2996 275.366 54.1996 274.166 54.1996C272.766 54.1996 272.766 56.0996 271.766 57.6996C270.766 58.9996 269.166 59.3996 268.266 61.0996C267.866 61.8996 266.866 62.0996 265.966 62.0996C265.466 62.0996 265.066 61.9996 264.766 61.9996C263.966 61.9996 261.766 60.9996 261.366 59.8996C261.366 59.7996 261.266 59.6996 261.266 59.5996C261.266 59.3996 261.066 59.2996 261.066 59.0996C260.766 57.8996 260.266 55.7996 260.266 53.9996C260.266 52.5996 260.066 49.9996 260.066 46.9996C260.066 44.8996 260.166 45.4996 260.266 42.8996C260.366 41.8996 260.366 40.9996 260.366 40.1996C260.366 38.6996 260.266 37.3996 259.666 36.5996C258.766 35.2996 255.366 34.4996 253.966 34.4996C252.366 34.4996 250.266 35.0996 248.566 36.8996C246.766 38.6996 244.466 41.3996 243.666 43.2996C242.866 45.1996 240.466 48.3996 239.766 49.5996C238.966 50.5996 237.566 54.0996 237.566 54.0996C237.566 54.0996 237.966 49.7996 238.166 48.6996ZM236.066 42.6996C235.866 42.6996 235.866 42.5996 235.866 42.3996V41.5996C235.766 40.5996 235.866 39.1996 235.666 37.8996C235.666 35.2996 235.666 33.4996 236.066 29.7996C236.466 25.8996 236.266 23.8996 236.466 21.8996C236.666 19.8996 237.566 17.9996 237.966 15.1996C238.566 12.4996 239.866 9.9996 240.666 9.9996C240.866 9.9996 241.166 9.8996 241.266 9.8996C242.266 9.8996 242.966 10.3996 243.166 11.9996C243.266 12.5996 243.266 13.0996 243.266 13.5996C243.266 15.0996 242.966 16.2996 242.666 17.7996C242.166 19.8996 241.966 22.7996 241.966 24.7996C241.866 26.9996 241.466 27.7996 241.066 28.5996C240.766 28.5996 239.566 33.2996 239.166 35.2996C238.666 38.1996 237.066 42.6996 236.066 42.6996Z" fill="black"/>
</svg>
