<svg width="286" height="77" viewBox="0 0 286 77" fill="none" xmlns="http://www.w3.org/2000/svg">
<path d="M25.9008 71.9996C25.7674 72.7329 25.3008 73.2996 24.5008 73.6996C23.7675 74.0996 23.0341 74.2996 22.3008 74.2996C20.5008 74.2996 19.4008 73.7329 19.0008 72.5996C18.6008 71.4663 18.4008 70.0329 18.4008 68.2996C18.4008 65.9663 18.4674 63.8996 18.6008 62.0996C18.7341 60.2996 18.8008 58.1329 18.8008 55.5996C18.7341 54.1996 18.6674 52.4996 18.6008 50.4996C18.6008 48.4996 18.5674 46.3996 18.5008 44.1996C18.5008 41.9329 18.4675 39.6996 18.4008 37.4996C18.4008 35.2996 18.4008 33.2996 18.4008 31.4996C18.4008 30.6329 18.4008 29.7996 18.4008 28.9996C18.4675 28.1329 18.5008 27.2329 18.5008 26.2996C16.3674 26.2996 14.6674 26.3329 13.4008 26.3996C12.1341 26.3996 11.1674 26.4329 10.5008 26.4996C9.83411 26.5663 9.36745 26.6329 9.10078 26.6996C8.90078 26.7663 8.80078 26.7996 8.80078 26.7996H8.90078C8.76745 29.8663 8.63412 33.1663 8.50078 36.6996C8.43412 40.2329 8.33411 43.7329 8.20078 47.1996C8.13412 50.6663 8.06745 53.9329 8.00078 56.9996C7.93411 59.9996 7.90078 62.5329 7.90078 64.5996C7.90078 66.7996 7.90078 68.4329 7.90078 69.4996C7.96745 70.4996 8.00078 71.3663 8.00078 72.0996C8.00078 72.4996 7.83411 72.8663 7.50078 73.1996C7.23411 73.4663 6.86745 73.6996 6.40078 73.8996C5.93411 74.0329 5.46745 74.1329 5.00078 74.1996C4.53411 74.3329 4.13411 74.3996 3.80078 74.3996C3.06745 74.3996 2.36745 74.0996 1.70078 73.4996C1.10078 72.8996 0.800781 71.5996 0.800781 69.5996C0.800781 68.1996 0.834115 66.0996 0.900781 63.2996C0.967448 60.4329 1.06745 57.2329 1.20078 53.6996C1.33411 50.1663 1.43411 46.4329 1.50078 42.4996C1.63411 38.5663 1.76745 34.7329 1.90078 30.9996C2.03411 27.2663 2.13411 23.7996 2.20078 20.5996C2.26745 17.3996 2.30078 14.7996 2.30078 12.7996C2.30078 12.2663 2.26745 11.4329 2.20078 10.2996C2.13411 9.16627 2.10078 7.93294 2.10078 6.59961C2.23411 5.86627 2.63411 5.29961 3.30078 4.89961C3.96745 4.49961 4.76745 4.29961 5.70078 4.29961C6.36745 4.29961 7.00078 4.46628 7.60078 4.79961C8.20078 5.06628 8.60078 5.36628 8.80078 5.69961C9.06745 6.16627 9.23412 6.96627 9.30078 8.09961C9.36745 9.16628 9.40078 10.9663 9.40078 13.4996C9.40078 13.7663 9.40078 14.3663 9.40078 15.2996C9.40078 16.2329 9.33411 17.8996 9.20078 20.2996H18.6008V18.1996C18.6008 16.3329 18.5674 14.7663 18.5008 13.4996C18.5008 12.2329 18.4675 11.1996 18.4008 10.3996C18.4008 9.53294 18.3674 8.83294 18.3008 8.29961C18.3008 7.69961 18.3008 7.16628 18.3008 6.69961C18.3008 6.29961 18.4341 5.93294 18.7008 5.59961C19.0341 5.26628 19.4008 4.99961 19.8008 4.79961C20.2674 4.59961 20.7341 4.46627 21.2008 4.39961C21.6675 4.26628 22.0675 4.19961 22.4008 4.19961C23.2008 4.19961 23.9341 4.49961 24.6008 5.09961C25.2674 5.63294 25.6008 6.93294 25.6008 8.99961C25.6008 9.86628 25.5674 11.3329 25.5008 13.3996C25.5008 15.3996 25.4674 17.7329 25.4008 20.3996C25.4008 23.0663 25.3674 25.8996 25.3008 28.8996C25.3008 31.8329 25.2675 34.6996 25.2008 37.4996C25.2008 40.2329 25.1675 42.7329 25.1008 44.9996C25.1008 47.1996 25.1008 48.8663 25.1008 49.9996C25.1008 50.7996 25.1341 51.5996 25.2008 52.3996C25.2675 53.1996 25.3341 54.0329 25.4008 54.8996C25.4674 56.9663 25.5341 58.6996 25.6008 60.0996C25.6675 61.4996 25.7008 62.8329 25.7008 64.0996C25.7008 65.2996 25.7008 66.4996 25.7008 67.6996C25.7675 68.8996 25.8341 70.3329 25.9008 71.9996Z" fill="black"/>
<path d="M30.3813 33.8996C30.3813 32.5663 30.4813 31.1996 30.6813 29.7996C30.9479 28.3996 31.4813 27.1329 32.2812 25.9996C33.0813 24.8663 34.1812 23.9329 35.5812 23.1996C37.0479 22.4663 38.9813 22.0996 41.3813 22.0996C43.4479 22.0996 45.1146 22.5329 46.3813 23.3996C47.6479 24.2663 48.6146 25.4329 49.2812 26.8996C50.0146 28.3663 50.4813 30.0996 50.6813 32.0996C50.8813 34.0996 50.9813 36.2329 50.9813 38.4996C50.9813 40.6996 50.9479 42.7663 50.8813 44.6996C50.8146 46.5663 50.7479 48.4663 50.6813 50.3996C50.6813 52.2663 50.6479 54.2329 50.5813 56.2996C50.5146 58.2996 50.4813 60.5329 50.4813 62.9996V66.8996C50.4813 67.1663 50.6813 67.2996 51.0813 67.2996C51.4146 67.2996 51.8479 67.2329 52.3813 67.0996C52.9813 66.8996 53.4479 66.7996 53.7812 66.7996C54.3146 66.7996 54.7146 66.9329 54.9813 67.1996C55.2479 67.3996 55.3813 67.9329 55.3813 68.7996C55.3813 69.1329 55.2813 69.5996 55.0813 70.1996C54.8813 70.7329 54.5479 71.2663 54.0813 71.7996C53.6813 72.3329 53.0812 72.7996 52.2812 73.1996C51.5479 73.5996 50.5813 73.7996 49.3813 73.7996C47.5146 73.7996 46.1479 73.2663 45.2812 72.1996C44.8146 72.5329 44.0146 72.9329 42.8813 73.3996C41.8146 73.8663 40.7479 74.0996 39.6813 74.0996C38.4813 74.0996 37.4479 73.8663 36.5813 73.3996C35.7146 72.8663 35.0146 72.2996 34.4813 71.6996C33.9479 71.0329 33.5146 70.3996 33.1813 69.7996C32.8479 69.1329 32.5813 68.6996 32.3813 68.4996C32.2479 68.3663 32.0813 68.0996 31.8813 67.6996C31.6813 67.2996 31.4812 66.6663 31.2812 65.7996C31.0812 64.9329 30.9146 63.7996 30.7812 62.3996C30.6479 60.9329 30.5813 59.1329 30.5813 56.9996C30.5813 52.4663 31.5146 48.8996 33.3813 46.2996C35.2479 43.6329 37.8146 42.2996 41.0813 42.2996C41.6146 42.2996 42.1479 42.3329 42.6813 42.3996C43.2146 42.4663 43.7479 42.5663 44.2813 42.6996C44.2813 41.8996 44.3146 41.1329 44.3813 40.3996C44.4479 39.6663 44.4813 38.9663 44.4813 38.2996C44.4813 37.2996 44.4146 36.2329 44.2813 35.0996C44.2146 33.8996 44.0479 32.7996 43.7812 31.7996C43.5813 30.7996 43.2479 29.9329 42.7813 29.1996C42.3813 28.4663 41.8479 28.0663 41.1813 27.9996C39.9146 28.1329 39.0146 28.4996 38.4813 29.0996C37.9479 29.6996 37.5479 30.3996 37.2812 31.1996C37.0813 31.9329 36.9813 32.7329 36.9813 33.5996C36.9813 34.4663 36.8813 35.2663 36.6813 35.9996C36.5479 36.7329 36.2479 37.3329 35.7812 37.7996C35.3812 38.2663 34.6479 38.4996 33.5812 38.4996C32.7146 38.4996 31.9479 38.1329 31.2812 37.3996C30.6812 36.5996 30.3813 35.4329 30.3813 33.8996ZM43.7812 58.6996C43.7812 56.6329 43.7812 54.7663 43.7812 53.0996C43.7812 51.3663 43.8479 49.8329 43.9813 48.4996C43.3813 48.3663 42.7813 48.2663 42.1813 48.1996C41.6479 48.1329 41.2146 48.0996 40.8813 48.0996C40.8146 48.0996 40.5813 48.1663 40.1813 48.2996C39.7813 48.4329 39.3479 48.7996 38.8813 49.3996C38.4146 49.9329 37.9812 50.7329 37.5812 51.7996C37.2479 52.8663 37.0812 54.3329 37.0812 56.1996C37.0812 58.5996 37.2146 60.5663 37.4813 62.0996C37.7479 63.5663 38.1146 64.7329 38.5812 65.5996C39.1146 66.4663 39.6812 67.0663 40.2812 67.3996C40.8813 67.7329 41.5479 67.8996 42.2812 67.8996C42.5479 67.8996 42.8479 67.8663 43.1813 67.7996C43.5813 67.7329 43.9146 67.6329 44.1813 67.4996C43.9813 66.2996 43.8479 64.9996 43.7812 63.5996C43.7812 62.1329 43.7812 60.4996 43.7812 58.6996Z" fill="black"/>
<path d="M62.3484 22.0996C62.8818 22.2329 63.2818 22.4329 63.5484 22.6996C63.8151 22.8996 64.0151 23.1329 64.1484 23.3996C64.7484 23.0663 65.4151 22.7663 66.1484 22.4996C66.9484 22.2329 67.9151 22.0996 69.0484 22.0996C70.5151 22.0996 71.7484 22.3663 72.7484 22.8996C73.7484 23.4329 74.5818 24.0663 75.2484 24.7996C75.9151 25.5329 76.4484 26.2996 76.8484 27.0996C77.2484 27.8329 77.5484 28.4663 77.7484 28.9996L77.9484 29.5996C78.0818 30.5329 78.1484 31.8329 78.1484 33.4996C78.2151 35.1663 78.2484 36.9663 78.2484 38.8996C78.2484 41.6996 78.2484 44.1996 78.2484 46.3996C78.3151 48.5329 78.3818 50.3663 78.4484 51.8996C78.5151 53.6996 78.5818 55.2663 78.6484 56.5996C78.6484 57.5329 78.5484 58.5996 78.3484 59.7996C78.2151 60.9329 78.1484 61.9996 78.1484 62.9996C78.1484 64.3329 78.2484 65.6329 78.4484 66.8996C78.7151 68.0996 78.8484 69.2996 78.8484 70.4996C78.8484 71.2329 78.6151 71.9663 78.1484 72.6996C77.6818 73.3663 76.6484 73.6996 75.0484 73.6996C73.7151 73.6996 72.8151 73.3996 72.3484 72.7996C71.9484 72.1996 71.7484 71.4329 71.7484 70.4996V69.5996C71.7484 69.4663 71.7484 69.3329 71.7484 69.1996C71.8151 68.9996 71.8484 68.7996 71.8484 68.5996C71.8484 68.1996 71.8484 67.3996 71.8484 66.1996C71.8484 64.9329 71.8484 63.4329 71.8484 61.6996C71.9151 59.9663 71.9484 58.0996 71.9484 56.0996C71.9484 54.0996 71.9484 52.1996 71.9484 50.3996C72.0151 48.5996 72.0484 46.9663 72.0484 45.4996C72.0484 44.0329 72.0484 42.9329 72.0484 42.1996V41.5996C72.1151 41.2663 72.1484 40.8329 72.1484 40.2996C72.2151 39.6996 72.2484 39.0329 72.2484 38.2996C72.2484 37.2996 72.2151 36.2329 72.1484 35.0996C72.0818 33.8996 71.9484 32.7996 71.7484 31.7996C71.5484 30.7996 71.2484 29.9329 70.8484 29.1996C70.4484 28.4663 69.9151 28.0663 69.2484 27.9996C67.7151 28.2663 66.6151 28.5996 65.9484 28.9996C65.2818 29.3329 64.9484 30.0996 64.9484 31.2996C64.9484 32.0329 64.9151 33.0996 64.8484 34.4996C64.7818 35.8996 64.6818 37.3329 64.5484 38.7996C64.4818 40.2663 64.4151 41.5996 64.3484 42.7996C64.2818 43.9329 64.2484 44.6329 64.2484 44.8996C64.2484 47.0329 64.2484 49.0329 64.2484 50.8996C64.3151 52.6996 64.3484 54.3663 64.3484 55.8996V62.0996C64.3484 66.4996 64.0818 69.5996 63.5484 71.3996C63.0818 73.1329 61.9818 73.9996 60.2484 73.9996C60.0484 73.9996 59.7484 73.9996 59.3484 73.9996C59.0151 73.9329 58.6484 73.7996 58.2484 73.5996C57.9151 73.3996 57.6151 73.0996 57.3484 72.6996C57.1484 72.2996 57.0484 71.7329 57.0484 70.9996C57.0484 69.7329 57.0818 67.6996 57.1484 64.8996C57.2818 62.0329 57.3818 58.9329 57.4484 55.5996C57.5818 52.2663 57.6818 48.9329 57.7484 45.5996C57.8818 42.1996 57.9484 39.3329 57.9484 36.9996C57.9484 34.6663 57.8818 32.7329 57.7484 31.1996C57.6151 29.5996 57.5484 27.9329 57.5484 26.1996C57.5484 24.8663 57.8151 23.7996 58.3484 22.9996C58.9484 22.1996 59.8484 21.7996 61.0484 21.7996C61.1818 21.7996 61.3818 21.8329 61.6484 21.8996C61.9151 21.8996 62.2151 21.9663 62.5484 22.0996L61.4484 21.8996C61.5151 21.8996 61.5484 21.9329 61.5484 21.9996C61.5484 21.9996 61.5818 21.9996 61.6484 21.9996L62.3484 22.0996ZM64.6484 24.6996C64.5818 24.6329 64.5484 24.5329 64.5484 24.3996C64.6151 24.4663 64.6151 24.5329 64.5484 24.5996C64.5484 24.5996 64.5818 24.6329 64.6484 24.6996Z" fill="black"/>
<path d="M99.8227 0.0996094C101.556 0.166275 102.589 0.566274 102.923 1.29961C103.323 2.03294 103.523 3.06628 103.523 4.39961C103.456 4.73294 103.389 5.16627 103.323 5.69961C103.323 6.23294 103.323 6.86628 103.323 7.59961C103.323 8.73294 103.356 9.66628 103.423 10.3996C103.489 11.1329 103.556 12.0329 103.623 13.0996C103.756 14.0996 103.856 15.4329 103.923 17.0996C104.056 18.7663 104.123 21.0996 104.123 24.0996C104.123 25.8329 104.056 27.3663 103.923 28.6996C103.856 30.0329 103.756 31.3996 103.623 32.7996C103.556 34.1996 103.489 35.7996 103.423 37.5996C103.356 39.3329 103.323 41.5329 103.323 44.1996C103.323 44.9996 103.389 46.3663 103.523 48.2996C103.656 50.1663 103.789 52.2663 103.923 54.5996C104.123 56.8663 104.289 59.1996 104.423 61.5996C104.556 63.9329 104.656 65.9329 104.723 67.5996C105.389 67.0663 106.023 66.7329 106.623 66.5996C107.223 66.3996 107.656 66.2996 107.923 66.2996C109.789 66.8329 110.723 67.7329 110.723 68.9996C110.723 69.4663 110.456 69.9996 109.923 70.5996C109.456 71.1996 108.823 71.7663 108.023 72.2996C107.289 72.7663 106.456 73.1663 105.523 73.4996C104.656 73.8329 103.789 73.9996 102.923 73.9996C102.189 73.9996 101.523 73.8996 100.923 73.6996C100.389 73.4329 99.956 73.1329 99.6227 72.7996C98.556 73.0663 97.4893 73.3663 96.4227 73.6996C95.356 74.0329 94.256 74.1996 93.1227 74.1996C90.7226 74.1996 88.856 73.4996 87.5227 72.0996C86.1893 70.6996 85.1893 68.7663 84.5227 66.2996C83.9227 63.8329 83.556 60.9329 83.4227 57.5996C83.2893 54.2663 83.2227 50.6663 83.2227 46.7996C83.2227 45.1996 83.3227 42.9663 83.5227 40.0996C83.7227 37.2329 83.8227 34.2996 83.8227 31.2996C83.8227 31.2329 83.8893 30.6663 84.0227 29.5996C84.2227 28.5329 84.6227 27.3996 85.2227 26.1996C85.8893 24.9996 86.856 23.8996 88.1227 22.8996C89.456 21.8996 91.2893 21.3996 93.6227 21.3996C95.0893 21.3996 96.3227 21.4996 97.3227 21.6996C97.256 19.1663 97.1893 16.6663 97.1227 14.1996C97.1227 11.7329 96.9227 9.33294 96.5227 6.99961V7.09961C96.3893 6.63294 96.3227 6.13294 96.3227 5.59961C96.3227 5.06628 96.3227 4.53294 96.3227 3.99961C96.3227 2.93294 96.5227 2.03294 96.9227 1.29961C97.3893 0.499608 98.356 0.0996094 99.8227 0.0996094ZM97.8227 64.7996C97.8227 63.3329 97.756 61.8663 97.6227 60.3996C97.556 58.8663 97.456 57.1329 97.3227 55.1996C97.256 53.1996 97.156 50.8663 97.0227 48.1996C96.956 45.4663 96.9227 42.1996 96.9227 38.3996C96.9227 37.9329 96.9227 37.1996 96.9227 36.1996C96.9893 35.1996 97.0227 34.1663 97.0227 33.0996C97.0893 32.0329 97.1227 31.0329 97.1227 30.0996C97.1893 29.1663 97.2227 28.5329 97.2227 28.1996C97.2227 27.8663 97.056 27.6329 96.7227 27.4996C96.3893 27.2996 95.4227 27.1996 93.8227 27.1996C92.8227 27.1996 92.0893 27.3329 91.6227 27.5996C91.156 27.8663 90.8227 28.2329 90.6227 28.6996C90.4893 29.1663 90.4227 29.7329 90.4227 30.3996C90.4227 30.9996 90.3893 31.6329 90.3227 32.2996C90.1893 34.0329 90.0227 36.3663 89.8227 39.2996C89.6893 42.1663 89.6227 45.6996 89.6227 49.8996C89.6227 52.0996 89.656 54.2996 89.7227 56.4996C89.7893 58.6996 89.9227 60.6663 90.1227 62.3996C90.3893 64.0663 90.756 65.4329 91.2227 66.4996C91.756 67.5663 92.456 68.0996 93.3227 68.0996C94.056 68.0996 94.8227 67.9663 95.6227 67.6996C96.4227 67.4329 97.156 67.1663 97.8227 66.8996V64.7996Z" fill="black"/>
<path d="M154.452 26.7996C154.452 29.3329 154.152 32.4329 153.552 36.0996C152.952 39.7663 152.419 43.8663 151.952 48.3996C151.752 51.1996 151.486 54.0996 151.152 57.0996C150.819 60.0996 150.286 62.8329 149.552 65.2996C148.819 67.7663 147.786 69.7996 146.452 71.3996C145.119 72.9996 143.319 73.7996 141.052 73.7996C139.252 73.7996 137.786 73.2996 136.652 72.2996C135.586 71.2329 134.752 69.9329 134.152 68.3996C133.619 66.7996 133.219 65.0663 132.952 63.1996C132.752 61.2663 132.619 59.3996 132.552 57.5996C132.352 58.7329 132.119 59.8663 131.852 60.9996C131.586 62.0663 131.186 63.0996 130.652 64.0996V63.9996C130.186 65.1996 129.719 66.3996 129.252 67.5996C128.852 68.7329 128.352 69.7663 127.752 70.6996C127.152 71.6329 126.419 72.3996 125.552 72.9996C124.752 73.5329 123.752 73.7996 122.552 73.7996C120.819 73.7996 119.386 73.2996 118.252 72.2996C117.186 71.2996 116.352 70.0329 115.752 68.4996C115.152 66.9663 114.686 65.2663 114.352 63.3996C114.086 61.5329 113.852 59.7663 113.652 58.0996C113.519 56.3663 113.352 54.8663 113.152 53.5996C113.019 52.3329 112.786 51.4663 112.452 50.9996C112.186 50.0663 111.952 48.9329 111.752 47.5996C111.619 46.2663 111.486 44.8663 111.352 43.3996C111.286 41.8663 111.219 40.3329 111.152 38.7996C111.152 37.2663 111.152 35.8329 111.152 34.4996C111.086 33.2996 111.019 32.4329 110.952 31.8996C110.886 31.2996 110.786 30.7996 110.652 30.3996C110.586 29.9996 110.519 29.5996 110.452 29.1996C110.386 28.7996 110.352 28.1663 110.352 27.2996C110.352 26.5663 110.586 25.8663 111.052 25.1996C111.519 24.4663 112.552 24.0996 114.152 24.0996C115.486 24.0996 116.386 25.0329 116.852 26.8996C117.386 28.6996 117.752 30.9996 117.952 33.7996C118.152 36.5329 118.319 39.4996 118.452 42.6996C118.586 45.8996 118.919 48.8663 119.452 51.5996C119.786 53.5329 119.986 55.1996 120.052 56.5996C120.186 57.9329 120.286 59.1329 120.352 60.1996C120.486 61.2663 120.686 62.2663 120.952 63.1996C121.219 64.0663 121.652 65.0329 122.252 66.0996C123.319 64.2329 124.186 62.1329 124.852 59.7996C125.519 57.3996 126.019 54.9663 126.352 52.4996C126.752 49.9663 127.019 47.4329 127.152 44.8996C127.352 42.3663 127.519 39.9996 127.652 37.7996C127.786 35.5329 127.952 33.5329 128.152 31.7996C128.352 29.9996 128.686 28.5663 129.152 27.4996C129.486 26.6329 129.919 25.9663 130.452 25.4996C130.986 24.9663 131.719 24.6996 132.652 24.6996C132.852 24.6996 133.119 24.7329 133.452 24.7996C133.852 24.7996 134.219 24.8996 134.552 25.0996C134.952 25.2996 135.252 25.5996 135.452 25.9996C135.719 26.3996 135.852 26.9663 135.852 27.6996C136.119 29.3663 136.319 31.1996 136.452 33.1996C136.652 35.1329 136.819 37.1663 136.952 39.2996C137.086 41.3663 137.219 43.4663 137.352 45.5996C137.486 47.7329 137.719 49.7663 138.052 51.6996L138.652 56.6996V56.5996C138.986 58.7329 139.286 60.5329 139.552 61.9996C139.886 63.4663 140.552 64.9996 141.552 66.5996C142.219 65.3996 142.819 64.0996 143.352 62.6996C143.886 61.2996 144.219 60.2663 144.352 59.5996C144.619 57.3329 144.819 54.8663 144.952 52.1996C145.152 49.5329 145.319 46.8996 145.452 44.2996C145.652 41.6329 145.852 39.0663 146.052 36.5996C146.319 34.1329 146.652 31.9663 147.052 30.0996C147.452 28.1663 147.986 26.6329 148.652 25.4996C149.319 24.3663 150.152 23.7996 151.152 23.7996C151.352 23.7996 151.652 23.8329 152.052 23.8996C152.452 23.8996 152.819 23.9996 153.152 24.1996C153.486 24.3996 153.786 24.6996 154.052 25.0996C154.319 25.4996 154.452 26.0663 154.452 26.7996ZM129.252 27.1996C129.186 27.3329 129.152 27.4329 129.152 27.4996C129.152 27.3663 129.186 27.2663 129.252 27.1996Z" fill="black"/>
<path d="M165.711 26.9996C167.111 22.9329 169.544 20.8996 173.011 20.8996C174.478 20.8996 175.711 21.1663 176.711 21.6996C177.711 22.2329 178.211 22.8329 178.211 23.4996C178.211 25.0996 178.111 26.1663 177.911 26.6996C177.711 27.1663 177.311 27.3996 176.711 27.3996C176.311 27.3996 175.811 27.3329 175.211 27.1996C174.678 27.0663 174.011 26.9996 173.211 26.9996C172.878 26.9996 172.578 27.0329 172.311 27.0996C172.044 27.0996 171.744 27.1329 171.411 27.1996C170.944 27.3329 170.378 27.6996 169.711 28.2996C169.111 28.8996 168.511 29.6329 167.911 30.4996C167.311 31.2996 166.778 32.1996 166.311 33.1996C165.911 34.1996 165.711 35.1329 165.711 35.9996C165.711 37.1996 165.678 38.6663 165.611 40.3996C165.544 42.0663 165.444 43.8663 165.311 45.7996C165.244 47.7329 165.178 49.7329 165.111 51.7996C165.044 53.8663 165.011 55.8329 165.011 57.6996C165.011 59.8996 165.144 61.8663 165.411 63.5996C165.678 65.3329 165.811 66.7663 165.811 67.8996C165.811 68.9663 165.644 69.8996 165.311 70.6996C164.978 71.4329 164.211 71.7996 163.011 71.7996C161.211 71.7996 160.078 71.2996 159.611 70.2996C159.144 69.2329 158.911 67.3996 158.911 64.7996C158.911 63.8663 158.911 62.8663 158.911 61.7996C158.978 60.6663 159.011 59.4329 159.011 58.0996L159.111 50.5996C159.111 48.2663 159.078 45.5329 159.011 42.3996C158.944 39.2663 158.944 36.2663 159.011 33.3996C159.011 31.5996 159.044 29.9329 159.111 28.3996C159.244 26.7996 159.411 25.3996 159.611 24.1996C159.878 22.9996 160.244 22.0663 160.711 21.3996C161.244 20.7329 161.911 20.3996 162.711 20.3996C163.511 20.3996 164.078 20.6329 164.411 21.0996C164.744 21.5663 164.978 22.1329 165.111 22.7996C165.244 23.4663 165.311 24.1996 165.311 24.9996C165.378 25.7329 165.511 26.3996 165.711 26.9996Z" fill="black"/>
<path d="M187.798 26.8996C187.798 27.1663 187.798 27.9996 187.798 29.3996C187.864 30.7329 187.898 32.1329 187.898 33.5996C187.898 34.9996 187.864 36.0996 187.798 36.8996C187.798 37.6996 187.764 38.3329 187.698 38.7996C187.698 39.2663 187.664 39.6329 187.598 39.8996C187.598 40.0996 187.598 40.2663 187.598 40.3996V45.2996C187.598 48.5663 187.531 51.4329 187.398 53.8996C187.264 56.2996 187.131 58.3663 186.998 60.0996C186.864 63.2329 186.731 65.6996 186.598 67.4996C186.531 69.2996 186.464 70.6663 186.398 71.5996C186.331 72.5329 186.231 73.1663 186.098 73.4996C185.964 73.7663 185.798 73.9663 185.598 74.0996C184.664 74.6996 184.064 75.0329 183.798 75.0996C183.598 75.2329 183.164 75.2996 182.498 75.2996C181.764 75.2996 181.098 75.0663 180.498 74.5996C179.964 74.1329 179.698 73.0996 179.698 71.4996C179.698 70.1663 179.764 68.2663 179.898 65.7996C180.098 63.3329 180.264 60.7996 180.398 58.1996C180.598 55.5329 180.764 53.0663 180.898 50.7996C181.098 48.5329 181.198 46.9329 181.198 45.9996C181.198 45.9996 181.164 45.9329 181.098 45.7996V45.6996V45.7996V45.5996V45.6996C181.031 45.4329 180.964 45.1996 180.898 44.9996C180.898 44.7329 180.864 44.2996 180.798 43.6996C180.798 43.0329 180.798 41.9996 180.798 40.5996C180.798 39.1996 180.798 37.1329 180.798 34.3996C180.798 33.1329 180.798 31.8996 180.798 30.6996C180.864 29.4329 180.964 28.2996 181.098 27.2996C181.231 26.2996 181.398 25.4996 181.598 24.8996C181.864 24.2996 182.164 23.9996 182.498 23.9996C183.698 23.9996 184.631 24.0996 185.298 24.2996C185.964 24.4329 186.464 24.6663 186.798 24.9996C187.198 25.2663 187.431 25.5663 187.498 25.8996C187.631 26.2329 187.731 26.5663 187.798 26.8996ZM184.998 16.3996C183.531 16.3996 182.198 16.0996 180.998 15.4996C179.864 14.8329 179.298 13.9329 179.298 12.7996C179.298 11.0663 179.898 9.56628 181.098 8.29961C182.298 7.03294 183.664 6.39961 185.198 6.39961C186.064 6.39961 186.764 6.56627 187.298 6.89961C187.898 7.16627 188.331 7.53294 188.598 7.99961C188.931 8.46627 189.131 8.96627 189.198 9.49961C189.331 9.96628 189.398 10.4329 189.398 10.8996C189.398 12.2996 188.964 13.5663 188.098 14.6996C187.298 15.8329 186.264 16.3996 184.998 16.3996Z" fill="black"/>
<path d="M187.735 26.5996C187.735 25.4663 188.302 24.6663 189.435 24.1996C190.568 23.7329 191.902 23.4996 193.435 23.4996C194.035 23.4996 194.568 23.4996 195.035 23.4996C195.502 23.4996 195.902 23.5329 196.235 23.5996V20.0996C196.235 18.9663 196.135 17.7663 195.935 16.4996C195.802 15.2329 195.735 13.9663 195.735 12.6996C195.735 11.6329 196.002 10.7329 196.535 9.99961C197.135 9.19961 198.202 8.79961 199.735 8.79961C201.202 9.06628 202.068 9.39961 202.335 9.79961C202.602 10.1329 202.735 10.8329 202.735 11.8996C202.735 12.7663 202.668 13.5329 202.535 14.1996C202.468 14.7996 202.435 15.3996 202.435 15.9996C202.502 16.3329 202.568 17.2996 202.635 18.8996C202.768 20.4329 202.902 22.0996 203.035 23.8996C203.168 23.8996 203.335 23.8996 203.535 23.8996C203.735 23.8329 203.935 23.7996 204.135 23.7996C204.935 23.7996 205.735 23.8663 206.535 23.9996C207.335 24.0663 207.935 24.0996 208.335 24.0996C208.468 24.0996 208.702 24.0329 209.035 23.8996C209.368 23.6996 210.002 23.5996 210.935 23.5996C212.268 23.5996 213.102 23.8663 213.435 24.3996C213.768 24.8663 213.935 25.5996 213.935 26.5996C213.935 27.9329 213.568 28.7996 212.835 29.1996C212.102 29.5329 211.235 29.6996 210.235 29.6996H208.035C207.902 29.6996 207.735 29.7329 207.535 29.7996C207.335 29.7996 207.168 29.7996 207.035 29.7996C206.435 29.7996 205.802 29.7996 205.135 29.7996C204.535 29.7329 203.935 29.6663 203.335 29.5996C203.335 32.7996 203.302 35.8996 203.235 38.8996C203.168 41.8329 203.068 44.5329 202.935 46.9996C202.868 49.3996 202.802 51.4663 202.735 53.1996C202.668 54.8663 202.635 56.0663 202.635 56.7996V59.7996C202.635 60.6663 202.635 61.6663 202.635 62.7996C202.702 63.9329 202.735 65.4663 202.735 67.3996C202.735 68.1996 202.935 68.8329 203.335 69.2996C203.735 69.6996 204.235 69.9996 204.835 70.1996C205.435 70.3996 206.102 70.5329 206.835 70.5996C207.568 70.5996 208.268 70.5996 208.935 70.5996C209.135 70.4663 209.335 70.3663 209.535 70.2996C209.735 70.2329 210.068 70.1996 210.535 70.1996C211.068 70.1996 211.535 70.3663 211.935 70.6996C212.335 70.9663 212.635 71.2996 212.835 71.6996C213.102 72.0329 213.302 72.3663 213.435 72.6996C213.568 73.0329 213.635 73.2663 213.635 73.3996C213.635 73.9996 213.435 74.4996 213.035 74.8996C212.635 75.3663 212.135 75.7329 211.535 75.9996C211.002 76.3329 210.402 76.5663 209.735 76.6996C209.135 76.8329 208.568 76.8996 208.035 76.8996C205.502 76.8996 203.435 76.5329 201.835 75.7996C200.235 75.1329 199.002 74.2663 198.135 73.1996C197.268 72.0663 196.668 70.7996 196.335 69.3996C196.068 67.9329 195.935 66.4329 195.935 64.8996C195.935 63.8329 195.968 62.8996 196.035 62.0996C196.168 61.2329 196.235 60.4329 196.235 59.6996C196.235 59.2996 196.168 58.6329 196.035 57.6996C195.968 56.6996 195.935 55.8329 195.935 55.0996C195.935 51.8996 195.968 48.8996 196.035 46.0996C196.168 43.2329 196.302 40.6996 196.435 38.4996C196.568 36.2996 196.668 34.4663 196.735 32.9996C196.868 31.5329 196.968 30.5329 197.035 29.9996C196.702 29.7329 196.235 29.5996 195.635 29.5996C194.968 29.5996 194.402 29.6329 193.935 29.6996C193.468 29.7663 192.902 29.7996 192.235 29.7996C191.168 29.7996 190.235 29.5996 189.435 29.1996C188.635 28.7996 188.068 27.9329 187.735 26.5996Z" fill="black"/>
<path d="M211.954 26.5996C211.954 25.4663 212.521 24.6663 213.654 24.1996C214.787 23.7329 216.121 23.4996 217.654 23.4996C218.254 23.4996 218.787 23.4996 219.254 23.4996C219.721 23.4996 220.121 23.5329 220.454 23.5996V20.0996C220.454 18.9663 220.354 17.7663 220.154 16.4996C220.021 15.2329 219.954 13.9663 219.954 12.6996C219.954 11.6329 220.221 10.7329 220.754 9.99961C221.354 9.19961 222.421 8.79961 223.954 8.79961C225.421 9.06628 226.287 9.39961 226.554 9.79961C226.821 10.1329 226.954 10.8329 226.954 11.8996C226.954 12.7663 226.887 13.5329 226.754 14.1996C226.687 14.7996 226.654 15.3996 226.654 15.9996C226.721 16.3329 226.787 17.2996 226.854 18.8996C226.987 20.4329 227.121 22.0996 227.254 23.8996C227.387 23.8996 227.554 23.8996 227.754 23.8996C227.954 23.8329 228.154 23.7996 228.354 23.7996C229.154 23.7996 229.954 23.8663 230.754 23.9996C231.554 24.0663 232.154 24.0996 232.554 24.0996C232.687 24.0996 232.921 24.0329 233.254 23.8996C233.587 23.6996 234.221 23.5996 235.154 23.5996C236.487 23.5996 237.321 23.8663 237.654 24.3996C237.987 24.8663 238.154 25.5996 238.154 26.5996C238.154 27.9329 237.787 28.7996 237.054 29.1996C236.321 29.5329 235.454 29.6996 234.454 29.6996H232.254C232.121 29.6996 231.954 29.7329 231.754 29.7996C231.554 29.7996 231.387 29.7996 231.254 29.7996C230.654 29.7996 230.021 29.7996 229.354 29.7996C228.754 29.7329 228.154 29.6663 227.554 29.5996C227.554 32.7996 227.521 35.8996 227.454 38.8996C227.387 41.8329 227.287 44.5329 227.154 46.9996C227.087 49.3996 227.021 51.4663 226.954 53.1996C226.887 54.8663 226.854 56.0663 226.854 56.7996V59.7996C226.854 60.6663 226.854 61.6663 226.854 62.7996C226.921 63.9329 226.954 65.4663 226.954 67.3996C226.954 68.1996 227.154 68.8329 227.554 69.2996C227.954 69.6996 228.454 69.9996 229.054 70.1996C229.654 70.3996 230.321 70.5329 231.054 70.5996C231.787 70.5996 232.487 70.5996 233.154 70.5996C233.354 70.4663 233.554 70.3663 233.754 70.2996C233.954 70.2329 234.287 70.1996 234.754 70.1996C235.287 70.1996 235.754 70.3663 236.154 70.6996C236.554 70.9663 236.854 71.2996 237.054 71.6996C237.321 72.0329 237.521 72.3663 237.654 72.6996C237.787 73.0329 237.854 73.2663 237.854 73.3996C237.854 73.9996 237.654 74.4996 237.254 74.8996C236.854 75.3663 236.354 75.7329 235.754 75.9996C235.221 76.3329 234.621 76.5663 233.954 76.6996C233.354 76.8329 232.787 76.8996 232.254 76.8996C229.721 76.8996 227.654 76.5329 226.054 75.7996C224.454 75.1329 223.221 74.2663 222.354 73.1996C221.487 72.0663 220.887 70.7996 220.554 69.3996C220.287 67.9329 220.154 66.4329 220.154 64.8996C220.154 63.8329 220.187 62.8996 220.254 62.0996C220.387 61.2329 220.454 60.4329 220.454 59.6996C220.454 59.2996 220.387 58.6329 220.254 57.6996C220.187 56.6996 220.154 55.8329 220.154 55.0996C220.154 51.8996 220.187 48.8996 220.254 46.0996C220.387 43.2329 220.521 40.6996 220.654 38.4996C220.787 36.2996 220.887 34.4663 220.954 32.9996C221.087 31.5329 221.187 30.5329 221.254 29.9996C220.921 29.7329 220.454 29.5996 219.854 29.5996C219.187 29.5996 218.621 29.6329 218.154 29.6996C217.687 29.7663 217.121 29.7996 216.454 29.7996C215.387 29.7996 214.454 29.5996 213.654 29.1996C212.854 28.7996 212.287 27.9329 211.954 26.5996Z" fill="black"/>
<path d="M259.873 65.2996C259.806 66.6996 259.639 67.9996 259.373 69.1996C259.106 70.3996 258.573 71.4663 257.773 72.3996C257.039 73.3329 255.973 74.0663 254.573 74.5996C253.173 75.1329 251.273 75.3996 248.873 75.3996C246.873 75.3996 245.273 74.9663 244.073 74.0996C242.873 73.2996 241.939 72.1996 241.273 70.7996C240.606 69.3996 240.173 67.7663 239.973 65.8996C239.773 63.9663 239.673 61.9329 239.673 59.7996C239.673 57.9329 239.639 56.3663 239.573 55.0996C239.573 53.7663 239.539 52.6329 239.473 51.6996C239.473 50.7663 239.439 49.9329 239.373 49.1996C239.373 48.3996 239.373 47.5663 239.373 46.6996C239.373 46.2996 239.373 45.5329 239.373 44.3996C239.439 43.2663 239.506 42.0663 239.573 40.7996C239.639 39.5329 239.673 38.3329 239.673 37.1996C239.739 35.9996 239.773 35.1329 239.773 34.5996C239.773 33.5996 239.806 32.4663 239.873 31.1996C240.006 29.9329 240.306 28.7329 240.773 27.5996C241.306 26.3996 242.106 25.3996 243.173 24.5996C244.306 23.7996 245.873 23.3996 247.873 23.3996C249.939 23.3996 251.839 23.9329 253.573 24.9996C255.306 25.9996 256.606 27.1329 257.473 28.3996L257.873 28.9996C257.939 29.1329 258.073 29.4329 258.273 29.8996C258.473 30.2996 258.673 30.9329 258.873 31.7996C259.073 32.6663 259.239 33.7996 259.373 35.1996C259.573 36.5996 259.673 38.3996 259.673 40.5996C259.673 45.1329 258.739 48.6996 256.873 51.2996C255.006 53.8996 252.439 55.1996 249.173 55.1996C247.973 55.1996 246.873 55.0996 245.873 54.8996C245.806 55.7663 245.773 56.5663 245.773 57.2996C245.773 58.0329 245.773 58.6996 245.773 59.2996C245.773 60.2996 245.806 61.3996 245.873 62.5996C245.939 63.7996 246.073 64.9329 246.273 65.9996C246.539 66.9996 246.873 67.8663 247.273 68.5996C247.739 69.2663 248.339 69.5996 249.073 69.5996C249.339 69.5996 249.706 69.5996 250.173 69.5996C250.639 69.5329 251.073 69.4329 251.473 69.2996C251.939 69.1663 252.306 68.9329 252.573 68.5996C252.906 68.1996 253.073 67.6996 253.073 67.0996C253.073 65.1663 253.339 63.7663 253.873 62.8996C254.473 62.0329 255.539 61.5996 257.073 61.5996C257.806 61.5996 258.439 61.8663 258.973 62.3996C259.573 62.9329 259.873 63.8996 259.873 65.2996ZM246.473 38.7996C246.473 40.7996 246.439 42.5996 246.373 44.1996C246.373 45.7996 246.339 47.2663 246.273 48.5996V48.9996C246.806 49.1329 247.439 49.2329 248.173 49.2996C248.906 49.3663 249.406 49.3996 249.673 49.3996C249.939 49.3996 250.273 49.2663 250.673 48.9996C251.073 48.7329 251.439 48.2996 251.773 47.6996C252.173 47.0996 252.506 46.2996 252.773 45.2996C253.039 44.2329 253.173 42.8996 253.173 41.2996C253.173 38.9663 253.039 37.0663 252.773 35.5996C252.506 34.0663 252.139 32.8663 251.673 31.9996C251.206 31.1329 250.673 30.5329 250.073 30.1996C249.473 29.7996 248.839 29.5996 248.173 29.5996C247.773 29.5996 247.306 29.7663 246.773 30.0996C246.306 30.4329 246.073 31.0663 246.073 31.9996C246.073 32.6663 246.139 33.5996 246.273 34.7996C246.406 35.9329 246.473 37.2663 246.473 38.7996Z" fill="black"/>
<path d="M268.989 22.0996C269.522 22.2329 269.922 22.4329 270.189 22.6996C270.456 22.8996 270.656 23.1329 270.789 23.3996C271.389 23.0663 272.056 22.7663 272.789 22.4996C273.589 22.2329 274.556 22.0996 275.689 22.0996C277.156 22.0996 278.389 22.3663 279.389 22.8996C280.389 23.4329 281.222 24.0663 281.889 24.7996C282.556 25.5329 283.089 26.2996 283.489 27.0996C283.889 27.8329 284.189 28.4663 284.389 28.9996L284.589 29.5996C284.722 30.5329 284.789 31.8329 284.789 33.4996C284.856 35.1663 284.889 36.9663 284.889 38.8996C284.889 41.6996 284.889 44.1996 284.889 46.3996C284.956 48.5329 285.022 50.3663 285.089 51.8996C285.156 53.6996 285.222 55.2663 285.289 56.5996C285.289 57.5329 285.189 58.5996 284.989 59.7996C284.856 60.9329 284.789 61.9996 284.789 62.9996C284.789 64.3329 284.889 65.6329 285.089 66.8996C285.356 68.0996 285.489 69.2996 285.489 70.4996C285.489 71.2329 285.256 71.9663 284.789 72.6996C284.322 73.3663 283.289 73.6996 281.689 73.6996C280.356 73.6996 279.456 73.3996 278.989 72.7996C278.589 72.1996 278.389 71.4329 278.389 70.4996V69.5996C278.389 69.4663 278.389 69.3329 278.389 69.1996C278.456 68.9996 278.489 68.7996 278.489 68.5996C278.489 68.1996 278.489 67.3996 278.489 66.1996C278.489 64.9329 278.489 63.4329 278.489 61.6996C278.556 59.9663 278.589 58.0996 278.589 56.0996C278.589 54.0996 278.589 52.1996 278.589 50.3996C278.656 48.5996 278.689 46.9663 278.689 45.4996C278.689 44.0329 278.689 42.9329 278.689 42.1996V41.5996C278.756 41.2663 278.789 40.8329 278.789 40.2996C278.856 39.6996 278.889 39.0329 278.889 38.2996C278.889 37.2996 278.856 36.2329 278.789 35.0996C278.722 33.8996 278.589 32.7996 278.389 31.7996C278.189 30.7996 277.889 29.9329 277.489 29.1996C277.089 28.4663 276.556 28.0663 275.889 27.9996C274.356 28.2663 273.256 28.5996 272.589 28.9996C271.922 29.3329 271.589 30.0996 271.589 31.2996C271.589 32.0329 271.556 33.0996 271.489 34.4996C271.422 35.8996 271.322 37.3329 271.189 38.7996C271.122 40.2663 271.056 41.5996 270.989 42.7996C270.922 43.9329 270.889 44.6329 270.889 44.8996C270.889 47.0329 270.889 49.0329 270.889 50.8996C270.956 52.6996 270.989 54.3663 270.989 55.8996V62.0996C270.989 66.4996 270.722 69.5996 270.189 71.3996C269.722 73.1329 268.622 73.9996 266.889 73.9996C266.689 73.9996 266.389 73.9996 265.989 73.9996C265.656 73.9329 265.289 73.7996 264.889 73.5996C264.556 73.3996 264.256 73.0996 263.989 72.6996C263.789 72.2996 263.689 71.7329 263.689 70.9996C263.689 69.7329 263.722 67.6996 263.789 64.8996C263.922 62.0329 264.022 58.9329 264.089 55.5996C264.222 52.2663 264.322 48.9329 264.389 45.5996C264.522 42.1996 264.589 39.3329 264.589 36.9996C264.589 34.6663 264.522 32.7329 264.389 31.1996C264.256 29.5996 264.189 27.9329 264.189 26.1996C264.189 24.8663 264.456 23.7996 264.989 22.9996C265.589 22.1996 266.489 21.7996 267.689 21.7996C267.822 21.7996 268.022 21.8329 268.289 21.8996C268.556 21.8996 268.856 21.9663 269.189 22.0996L268.089 21.8996C268.156 21.8996 268.189 21.9329 268.189 21.9996C268.189 21.9996 268.222 21.9996 268.289 21.9996L268.989 22.0996ZM271.289 24.6996C271.222 24.6329 271.189 24.5329 271.189 24.3996C271.256 24.4663 271.256 24.5329 271.189 24.5996C271.189 24.5996 271.222 24.6329 271.289 24.6996Z" fill="black"/>
</svg>
