<svg width="469" height="77" viewBox="0 0 469 77" fill="none" xmlns="http://www.w3.org/2000/svg">
<path d="M14.9992 15.9002C14.9992 15.5002 15.1992 15.3002 15.5992 15.3002H26.4992C32.2992 15.3002 34.1992 21.0002 34.1992 24.1002C34.1992 27.2002 32.2992 33.4002 26.4992 33.4002H15.5992C15.0992 33.4002 14.9992 33.2002 14.9992 32.8002V15.9002ZM35.9992 72.4002C37.2992 74.9002 39.6992 76.4002 42.2992 76.4002C43.3992 76.4002 44.4992 76.2002 45.5992 75.7002C48.1992 74.5002 49.6992 72.0002 49.6992 69.4002C49.6992 68.4002 49.4992 67.3002 48.9992 66.3002L36.7992 45.4002V45.2002C36.7992 45.0002 36.8992 45.0002 36.9992 44.9002C44.4992 39.7002 48.1992 33.2002 48.1992 24.1002C48.1992 10.8002 39.4992 1.00019 26.3992 1.00019H7.59922C3.59922 1.00019 0.699219 4.20019 0.699219 8.30019V68.9002C0.699219 72.8002 3.59922 76.4002 7.59922 76.4002C11.6992 76.4002 14.9992 73.1002 14.9992 69.0002V46.8002C14.9992 46.4002 15.1992 46.2002 15.5992 46.2002H20.7992C21.2992 46.2002 21.4992 46.4002 21.6992 46.8002L35.9992 72.4002Z" fill="black"/>
<path d="M55.5578 38.5002C55.5578 59.7002 72.6578 76.8002 93.8578 76.8002C115.058 76.8002 132.158 59.7002 132.158 38.5002C132.158 17.3002 115.058 0.200195 93.8578 0.200195C72.6578 0.200195 55.5578 17.3002 55.5578 38.5002ZM69.8578 38.5002C69.8578 25.2002 80.6578 14.5002 93.8578 14.5002C107.158 14.5002 117.858 25.2002 117.858 38.5002C117.858 51.7002 107.158 62.5002 93.8578 62.5002C80.6578 62.5002 69.8578 51.7002 69.8578 38.5002Z" fill="black"/>
<path d="M142.255 54.7002C142.255 67.5002 154.555 76.5002 167.255 76.5002C179.955 76.5002 191.755 67.5002 191.755 54.7002V7.6002C191.755 3.60019 188.655 0.600196 184.655 0.600196C180.655 0.600196 177.455 3.60019 177.455 7.6002V53.1002C177.455 58.1002 172.655 62.2002 167.255 62.2002C162.455 62.2002 156.555 58.5002 156.555 52.7002V7.6002C156.555 3.60019 153.455 0.600196 149.455 0.600196C145.455 0.600196 142.255 3.60019 142.255 7.6002V54.7002Z" fill="black"/>
<path d="M215.591 0.600196C210.791 0.600196 206.391 4.90019 206.391 9.70019V69.4002C206.391 73.4002 209.691 76.4002 213.691 76.4002C217.691 76.4002 220.691 73.5002 220.691 69.5002V29.7002C220.691 29.0002 221.191 28.5002 221.791 28.5002C222.091 28.5002 222.391 28.7002 222.791 29.3002L248.591 71.5002C249.891 73.5002 252.391 76.4002 256.891 76.4002C261.691 76.4002 266.091 72.1002 266.091 67.3002V7.6002C266.091 3.60019 262.791 0.600196 258.791 0.600196C254.791 0.600196 251.791 3.50019 251.791 7.50019V47.3002C251.791 48.0002 251.291 48.5002 250.691 48.5002C250.391 48.5002 250.091 48.3002 249.691 47.7002L223.891 5.50019C222.591 3.50019 220.091 0.600196 215.591 0.600196Z" fill="black"/>
<path d="M295.384 61.7002C294.884 61.7002 294.784 61.6002 294.784 61.1002V15.9002C294.784 15.5002 294.984 15.3002 295.384 15.3002H305.684C319.384 15.3002 328.484 24.8002 328.484 38.5002C328.484 52.2002 318.784 61.7002 305.084 61.7002H295.384ZM280.484 68.4002C280.484 72.5002 283.984 76.0002 288.084 76.0002H305.084C325.984 76.0002 342.784 59.0002 342.784 38.5002C342.784 18.0002 325.984 1.00019 305.084 1.00019H288.684C283.984 1.00019 280.484 4.50019 280.484 9.20019V68.4002Z" fill="black"/>
<path d="M365.222 46.1002C365.222 45.8002 365.422 45.5002 365.822 45.5002H385.222C389.222 45.5002 392.222 42.3002 392.222 38.3002C392.222 34.3002 389.222 31.2002 385.222 31.2002H365.822C365.522 31.2002 365.222 31.1002 365.222 30.6002V15.9002C365.222 15.6002 365.422 15.3002 365.822 15.3002H385.222C389.222 15.3002 392.222 12.1002 392.222 8.10019C392.222 4.10019 389.222 1.00019 385.222 1.00019H358.022C354.022 1.00019 350.922 4.20019 350.922 8.20019V68.8002C350.922 72.8002 354.022 76.0002 358.022 76.0002H385.222C389.222 76.0002 392.222 72.9002 392.222 68.9002C392.222 64.9002 389.222 61.7002 385.222 61.7002H365.822C365.422 61.7002 365.222 61.5002 365.222 61.1002V46.1002Z" fill="black"/>
<path d="M421.556 61.7002C421.056 61.7002 420.956 61.6002 420.956 61.1002V15.9002C420.956 15.5002 421.156 15.3002 421.556 15.3002H431.856C445.556 15.3002 454.656 24.8002 454.656 38.5002C454.656 52.2002 444.956 61.7002 431.256 61.7002H421.556ZM406.656 68.4002C406.656 72.5002 410.156 76.0002 414.256 76.0002H431.256C452.156 76.0002 468.956 59.0002 468.956 38.5002C468.956 18.0002 452.156 1.00019 431.256 1.00019H414.856C410.156 1.00019 406.656 4.50019 406.656 9.20019V68.4002Z" fill="black"/>
</svg>
