<svg width="274" height="76" viewBox="0 0 274 76" fill="none" xmlns="http://www.w3.org/2000/svg">
<path d="M40.7004 18.1002C40.7004 18.7669 40.5671 19.3002 40.3004 19.7002C40.0337 20.1002 39.7004 20.4002 39.3004 20.6002C38.9004 20.8002 38.5004 20.9335 38.1004 21.0002C37.7004 21.0669 37.3671 21.1002 37.1004 21.1002C36.0337 21.1002 35.2337 20.5669 34.7004 19.5002C34.2337 18.3669 33.6337 17.1669 32.9004 15.9002C32.2337 14.5669 31.2004 13.3669 29.8004 12.3002C28.4671 11.1669 26.3671 10.6002 23.5004 10.6002C21.7671 10.6002 20.2337 10.9669 18.9004 11.7002C17.5671 12.4335 16.4337 13.3669 15.5004 14.5002C14.6337 15.6335 13.9671 16.9002 13.5004 18.3002C13.1004 19.6335 12.9004 20.9669 12.9004 22.3002C12.9004 24.4335 13.2671 26.4002 14.0004 28.2002C14.8004 29.9335 15.9004 31.6002 17.3004 33.2002C18.7004 34.7335 20.3671 36.2669 22.3004 37.8002C24.2337 39.2669 26.3337 40.8335 28.6004 42.5002C30.5337 43.9002 32.4004 45.3335 34.2004 46.8002C36.0671 48.2669 37.7004 49.8335 39.1004 51.5002C40.5671 53.1669 41.7337 54.9669 42.6004 56.9002C43.4671 58.7669 43.9004 60.8002 43.9004 63.0002C43.9004 65.4669 43.2004 67.5002 41.8004 69.1002C40.4671 70.7002 38.7671 71.9669 36.7004 72.9002C34.6337 73.9002 32.3337 74.5669 29.8004 74.9002C27.3337 75.3002 24.9337 75.5002 22.6004 75.5002C20.2671 75.5002 17.8004 75.3002 15.2004 74.9002C12.6004 74.5002 10.2004 73.8002 8.00039 72.8002C5.80039 71.8669 3.96706 70.6335 2.50039 69.1002C1.10039 67.6335 0.400391 65.8002 0.400391 63.6002C0.400391 61.6002 1.06706 60.0335 2.40039 58.9002C3.80039 57.7669 5.80039 56.9335 8.40039 56.4002C8.26706 56.8002 7.96706 57.5002 7.50039 58.5002C7.10039 59.4335 6.90039 60.7335 6.90039 62.4002C6.90039 64.2669 7.50039 65.7669 8.70039 66.9002C9.90039 68.0335 11.3337 68.9002 13.0004 69.5002C14.6671 70.1002 16.3671 70.4669 18.1004 70.6002C19.9004 70.8002 21.3671 70.9002 22.5004 70.9002C23.2337 70.9002 24.2337 70.7669 25.5004 70.5002C26.8337 70.2335 28.1337 69.8335 29.4004 69.3002C30.6671 68.7669 31.7337 68.0669 32.6004 67.2002C33.5337 66.2669 34.0004 65.1669 34.0004 63.9002C34.0004 62.9002 33.6671 61.8669 33.0004 60.8002C32.4004 59.6669 31.5671 58.5335 30.5004 57.4002C29.4337 56.2002 28.2004 55.0002 26.8004 53.8002C25.4004 52.6002 23.9004 51.4002 22.3004 50.2002C19.9671 48.4002 17.6671 46.5669 15.4004 44.7002C13.1337 42.8335 11.1004 40.9002 9.30039 38.9002C7.50039 36.9002 6.03372 34.8335 4.90039 32.7002C3.76706 30.5002 3.20039 28.2002 3.20039 25.8002C3.20039 22.1335 3.86706 19.0335 5.20039 16.5002C6.60039 13.9002 8.36706 11.8002 10.5004 10.2002C12.7004 8.60019 15.1004 7.43353 17.7004 6.7002C20.3004 5.96686 22.8337 5.6002 25.3004 5.6002C27.1671 5.6002 29.1004 5.76686 31.1004 6.1002C33.1671 6.36687 35.0337 6.8002 36.7004 7.4002C38.4337 7.93353 39.8337 8.66686 40.9004 9.60019C42.0337 10.4669 42.6004 11.5002 42.6004 12.7002C42.6004 13.6335 42.2671 14.5335 41.6004 15.4002C41.0004 16.2002 40.7004 17.1002 40.7004 18.1002Z" fill="black"/>
<path d="M80.5168 43.4002C79.5835 45.2002 78.7168 47.1002 77.9168 49.1002C77.1168 51.1002 76.5168 52.6669 76.1168 53.8002C76.0501 54.1335 75.8501 54.8335 75.5168 55.9002C75.2501 56.9669 74.9168 58.1669 74.5168 59.5002C74.1835 60.7669 73.8835 62.0335 73.6168 63.3002C73.3501 64.5669 73.2168 65.6002 73.2168 66.4002C73.2168 66.7335 72.9168 67.0335 72.3168 67.3002C71.7168 67.5669 70.9501 67.7002 70.0168 67.7002C68.5501 67.7002 67.3835 67.5002 66.5168 67.1002C65.6501 66.7002 64.9835 66.0669 64.5168 65.2002C64.1168 64.2669 63.8501 63.0669 63.7168 61.6002C63.6501 60.1335 63.6168 58.3669 63.6168 56.3002V48.8002C63.6168 48.2669 63.5835 47.7335 63.5168 47.2002C63.5168 46.6669 63.4168 46.3335 63.2168 46.2002C62.8835 46.3335 62.4501 47.2002 61.9168 48.8002C61.4501 50.4002 60.9835 52.3669 60.5168 54.7002C60.1168 56.9669 59.7501 59.3669 59.4168 61.9002C59.0835 64.4335 58.9168 66.7002 58.9168 68.7002C58.9168 69.4335 58.5168 69.8669 57.7168 70.0002C56.9835 70.1335 56.1501 70.2002 55.2168 70.2002C54.9501 70.2002 54.4835 70.1335 53.8168 70.0002C53.2168 69.9335 52.5835 69.8335 51.9168 69.7002C51.3168 69.5669 50.7501 69.3669 50.2168 69.1002C49.6835 68.9002 49.3501 68.6335 49.2168 68.3002C48.8835 67.4335 48.6168 66.0002 48.4168 64.0002C48.2835 62.0002 48.2168 58.9002 48.2168 54.7002C48.2168 52.2335 48.2501 49.3669 48.3168 46.1002C48.4501 42.8335 48.5835 39.0002 48.7168 34.6002C48.7168 34.0002 48.6835 33.2335 48.6168 32.3002C48.5501 31.3002 48.5168 30.7335 48.5168 30.6002C48.5168 30.0669 48.7168 29.7669 49.1168 29.7002C49.5835 29.5669 49.9168 29.5002 50.1168 29.5002C50.5835 29.5002 51.1168 29.5669 51.7168 29.7002C52.3835 29.7669 53.0168 29.8669 53.6168 30.0002C54.2835 30.1335 54.8835 30.3002 55.4168 30.5002C55.9501 30.6335 56.3168 30.7669 56.5168 30.9002V55.0002C56.8501 53.6669 57.2168 52.1335 57.6168 50.4002C58.0835 48.6002 58.5835 46.8335 59.1168 45.1002C59.7168 43.3669 60.3501 41.7669 61.0168 40.3002C61.6835 38.8335 62.3835 37.7669 63.1168 37.1002C63.3835 36.9002 63.8835 36.7669 64.6168 36.7002C65.3501 36.5669 65.9501 36.5002 66.4168 36.5002C66.7501 36.5002 67.1501 36.5669 67.6168 36.7002C68.1501 36.7669 68.6501 36.9002 69.1168 37.1002C69.5835 37.3002 69.9835 37.5669 70.3168 37.9002C70.7168 38.1669 70.9501 38.5002 71.0168 38.9002V55.1002V56.0002C71.0168 56.4002 71.0835 56.6002 71.2168 56.6002C71.3501 56.6002 71.7168 55.7002 72.3168 53.9002C72.9835 52.1002 73.7501 49.9669 74.6168 47.5002C75.4835 45.0335 76.4168 42.5002 77.4168 39.9002C78.4168 37.3002 79.3168 35.2335 80.1168 33.7002C80.2501 33.4335 80.6835 33.3002 81.4168 33.3002C82.2168 33.2335 82.9168 33.2002 83.5168 33.2002C83.9835 33.2002 84.6168 33.3669 85.4168 33.7002C86.2168 33.9669 86.9835 34.3669 87.7168 34.9002C88.5168 35.4335 89.1835 36.0335 89.7168 36.7002C90.3168 37.3669 90.6168 38.0669 90.6168 38.8002C90.6168 38.9335 90.4168 39.3335 90.0168 40.0002C89.6168 40.6002 89.3501 41.2335 89.2168 41.9002C88.7501 43.7669 88.4168 45.6002 88.2168 47.4002C88.0835 49.2002 88.0168 51.5002 88.0168 54.3002C88.0168 55.5002 88.0501 56.7002 88.1168 57.9002C88.2501 59.1002 88.4168 60.2002 88.6168 61.2002C88.8835 62.1335 89.2168 62.9002 89.6168 63.5002C90.0168 64.1002 90.5501 64.4002 91.2168 64.4002C92.1501 64.4002 92.9835 64.1002 93.7168 63.5002C94.4501 62.8335 95.0835 61.9669 95.6168 60.9002C96.1501 59.8335 96.6168 58.6002 97.0168 57.2002C97.4168 55.7335 97.7501 54.2335 98.0168 52.7002C98.3501 51.1002 98.9501 50.3002 99.8168 50.3002C100.35 50.3002 100.683 50.4335 100.817 50.7002C101.017 50.9669 101.117 51.5669 101.117 52.5002C101.117 53.0335 101.083 53.4002 101.017 53.6002C100.95 54.4669 100.65 55.8335 100.117 57.7002C99.6501 59.5002 98.9501 61.3335 98.0168 63.2002C97.1501 65.0002 96.0501 66.6002 94.7168 68.0002C93.3835 69.3335 91.8501 70.0002 90.1168 70.0002C88.0501 70.0002 86.3501 69.5002 85.0168 68.5002C83.6835 67.5669 82.6501 66.3002 81.9168 64.7002C81.1835 63.0335 80.6501 61.1335 80.3168 59.0002C80.0501 56.8669 79.9168 54.6335 79.9168 52.3002V51.6002L80.5168 43.4002Z" fill="black"/>
<path d="M131.872 39.4002C132.139 38.9335 132.606 38.7002 133.272 38.7002C133.606 38.7002 133.839 38.9002 133.972 39.3002C134.106 39.7002 134.172 40.0335 134.172 40.3002C134.106 42.3669 133.639 44.2335 132.772 45.9002C131.972 47.5002 131.106 48.9002 130.172 50.1002C129.639 50.8335 129.039 51.5002 128.372 52.1002C127.772 52.7002 127.139 53.2669 126.472 53.8002C126.406 54.9335 126.339 55.7335 126.272 56.2002C126.272 56.6002 126.239 56.9335 126.172 57.2002C126.039 58.2002 125.706 59.4669 125.172 61.0002C124.639 62.5335 123.872 64.0335 122.872 65.5002C121.939 66.9669 120.772 68.2002 119.372 69.2002C118.039 70.2669 116.472 70.8002 114.672 70.8002C114.072 70.8002 113.372 70.7335 112.572 70.6002C111.839 70.4669 111.072 70.2669 110.272 70.0002C109.472 69.8002 108.706 69.5335 107.972 69.2002C107.239 68.9335 106.606 68.6335 106.072 68.3002C104.406 67.3669 103.039 66.2669 101.972 65.0002C100.906 63.7335 100.072 62.4002 99.4723 61.0002C98.9389 59.5335 98.5723 58.0669 98.3723 56.6002C98.1723 55.0669 98.0723 53.6002 98.0723 52.2002C98.0723 49.8002 98.3056 47.3669 98.7723 44.9002C99.3056 42.4335 99.9389 40.0669 100.672 37.8002C101.406 35.5335 102.239 33.5002 103.172 31.7002C104.106 29.9002 105.006 28.5002 105.872 27.5002C106.739 26.5669 107.706 25.9335 108.772 25.6002C109.839 25.2002 110.806 25.0002 111.672 25.0002C112.739 25.0002 113.806 25.2669 114.872 25.8002C115.939 26.3335 116.972 27.0002 117.972 27.8002C118.972 28.6002 119.939 29.5335 120.872 30.6002C121.872 31.6002 122.806 32.6002 123.672 33.6002C124.339 34.3335 124.839 35.5335 125.172 37.2002C125.506 38.8002 125.772 40.4335 125.972 42.1002C126.106 43.0335 126.206 44.0335 126.272 45.1002C126.339 46.1669 126.372 47.2669 126.372 48.4002C127.372 47.6002 128.172 46.7669 128.772 45.9002C129.372 44.9669 129.839 44.1002 130.172 43.3002C130.572 42.5002 130.872 41.7669 131.072 41.1002C131.339 40.3669 131.606 39.8002 131.872 39.4002ZM120.572 48.0002C120.572 47.7335 120.539 47.1335 120.472 46.2002C120.472 45.2669 120.406 44.1669 120.272 42.9002C120.206 41.6335 120.039 40.3335 119.772 39.0002C119.572 37.6002 119.239 36.3335 118.772 35.2002C118.372 34.0669 117.839 33.1335 117.172 32.4002C116.506 31.6002 115.672 31.2002 114.672 31.2002C113.672 31.2002 112.706 31.6002 111.772 32.4002C110.839 33.2002 110.006 34.2335 109.272 35.5002C108.539 36.7669 107.939 38.2002 107.472 39.8002C107.072 41.4002 106.872 42.9669 106.872 44.5002C106.872 47.1669 107.406 49.1335 108.472 50.4002C109.539 51.6002 111.372 52.2002 113.972 52.2002C115.906 52.2002 117.472 51.9002 118.672 51.3002C119.939 50.7002 120.572 50.2335 120.572 49.9002V48.0002ZM120.072 56.2002C119.272 56.7335 118.172 57.1335 116.772 57.4002C115.372 57.6669 114.206 57.8002 113.272 57.8002C111.472 57.8002 110.072 57.6669 109.072 57.4002C108.139 57.1335 107.106 56.6002 105.972 55.8002L105.872 57.9002C105.872 58.6335 105.972 59.4002 106.172 60.2002C106.372 61.0002 106.672 61.7335 107.072 62.4002C107.539 63.0669 108.172 63.6335 108.972 64.1002C109.772 64.5002 110.772 64.7002 111.972 64.7002C113.439 64.7002 114.672 64.4335 115.672 63.9002C116.739 63.3002 117.572 62.5669 118.172 61.7002C118.839 60.8335 119.306 59.9002 119.572 58.9002C119.906 57.9002 120.072 57.0002 120.072 56.2002Z" fill="black"/>
<path d="M164.587 39.4002C164.854 38.9335 165.32 38.7002 165.987 38.7002C166.32 38.7002 166.554 38.9002 166.687 39.3002C166.82 39.7002 166.887 40.0335 166.887 40.3002C166.82 42.3669 166.354 44.2335 165.487 45.9002C164.687 47.5002 163.82 48.9002 162.887 50.1002C162.354 50.8335 161.754 51.5002 161.087 52.1002C160.487 52.7002 159.854 53.2669 159.187 53.8002C159.12 54.9335 159.054 55.7335 158.987 56.2002C158.987 56.6002 158.954 56.9335 158.887 57.2002C158.754 58.2002 158.42 59.4669 157.887 61.0002C157.354 62.5335 156.587 64.0335 155.587 65.5002C154.654 66.9669 153.487 68.2002 152.087 69.2002C150.754 70.2669 149.187 70.8002 147.387 70.8002C146.787 70.8002 146.087 70.7335 145.287 70.6002C144.554 70.4669 143.787 70.2669 142.987 70.0002C142.187 69.8002 141.42 69.5335 140.687 69.2002C139.954 68.9335 139.32 68.6335 138.787 68.3002C137.12 67.3669 135.754 66.2669 134.687 65.0002C133.62 63.7335 132.787 62.4002 132.187 61.0002C131.654 59.5335 131.287 58.0669 131.087 56.6002C130.887 55.0669 130.787 53.6002 130.787 52.2002C130.787 49.8002 131.02 47.3669 131.487 44.9002C132.02 42.4335 132.654 40.0669 133.387 37.8002C134.12 35.5335 134.954 33.5002 135.887 31.7002C136.82 29.9002 137.72 28.5002 138.587 27.5002C139.454 26.5669 140.42 25.9335 141.487 25.6002C142.554 25.2002 143.52 25.0002 144.387 25.0002C145.454 25.0002 146.52 25.2669 147.587 25.8002C148.654 26.3335 149.687 27.0002 150.687 27.8002C151.687 28.6002 152.654 29.5335 153.587 30.6002C154.587 31.6002 155.52 32.6002 156.387 33.6002C157.054 34.3335 157.554 35.5335 157.887 37.2002C158.22 38.8002 158.487 40.4335 158.687 42.1002C158.82 43.0335 158.92 44.0335 158.987 45.1002C159.054 46.1669 159.087 47.2669 159.087 48.4002C160.087 47.6002 160.887 46.7669 161.487 45.9002C162.087 44.9669 162.554 44.1002 162.887 43.3002C163.287 42.5002 163.587 41.7669 163.787 41.1002C164.054 40.3669 164.32 39.8002 164.587 39.4002ZM153.287 48.0002C153.287 47.7335 153.254 47.1335 153.187 46.2002C153.187 45.2669 153.12 44.1669 152.987 42.9002C152.92 41.6335 152.754 40.3335 152.487 39.0002C152.287 37.6002 151.954 36.3335 151.487 35.2002C151.087 34.0669 150.554 33.1335 149.887 32.4002C149.22 31.6002 148.387 31.2002 147.387 31.2002C146.387 31.2002 145.42 31.6002 144.487 32.4002C143.554 33.2002 142.72 34.2335 141.987 35.5002C141.254 36.7669 140.654 38.2002 140.187 39.8002C139.787 41.4002 139.587 42.9669 139.587 44.5002C139.587 47.1669 140.12 49.1335 141.187 50.4002C142.254 51.6002 144.087 52.2002 146.687 52.2002C148.62 52.2002 150.187 51.9002 151.387 51.3002C152.654 50.7002 153.287 50.2335 153.287 49.9002V48.0002ZM152.787 56.2002C151.987 56.7335 150.887 57.1335 149.487 57.4002C148.087 57.6669 146.92 57.8002 145.987 57.8002C144.187 57.8002 142.787 57.6669 141.787 57.4002C140.854 57.1335 139.82 56.6002 138.687 55.8002L138.587 57.9002C138.587 58.6335 138.687 59.4002 138.887 60.2002C139.087 61.0002 139.387 61.7335 139.787 62.4002C140.254 63.0669 140.887 63.6335 141.687 64.1002C142.487 64.5002 143.487 64.7002 144.687 64.7002C146.154 64.7002 147.387 64.4335 148.387 63.9002C149.454 63.3002 150.287 62.5669 150.887 61.7002C151.554 60.8335 152.02 59.9002 152.287 58.9002C152.62 57.9002 152.787 57.0002 152.787 56.2002Z" fill="black"/>
<path d="M163.691 49.9002C163.758 46.5002 163.858 43.0335 163.991 39.5002C164.124 35.9669 164.258 32.7002 164.391 29.7002C164.391 29.1669 163.858 28.8002 162.791 28.6002C161.724 28.4002 160.524 28.2002 159.191 28.0002C157.858 27.8002 156.658 27.5002 155.591 27.1002C154.524 26.6335 153.991 25.9002 153.991 24.9002C153.991 24.0335 154.858 23.5335 156.591 23.4002C158.324 23.2669 160.891 23.2002 164.291 23.2002C164.558 23.2002 164.724 22.8002 164.791 22.0002C164.924 21.2002 164.991 20.2002 164.991 19.0002C165.058 17.7335 165.091 16.4002 165.091 15.0002C165.158 13.6002 165.224 12.3002 165.291 11.1002C165.358 9.83353 165.458 8.8002 165.591 8.0002C165.791 7.2002 166.024 6.80019 166.291 6.80019C166.624 6.80019 167.224 6.86686 168.091 7.0002C168.958 7.13353 169.858 7.33353 170.791 7.6002C171.724 7.8002 172.524 8.06686 173.191 8.4002C173.924 8.73353 174.291 9.1002 174.291 9.5002L173.191 22.5002C173.191 22.9002 173.524 23.2002 174.191 23.4002C174.924 23.5335 175.824 23.6335 176.891 23.7002C178.024 23.7002 179.191 23.7002 180.391 23.7002C181.658 23.7002 182.824 23.8002 183.891 24.0002C185.024 24.2002 185.924 24.5335 186.591 25.0002C187.324 25.4002 187.691 26.0335 187.691 26.9002C187.691 27.0335 187.624 27.2669 187.491 27.6002C187.358 27.8669 187.191 28.0002 186.991 28.0002C186.858 28.0002 186.658 27.9002 186.391 27.7002C186.191 27.5002 185.591 27.4002 184.591 27.4002C184.324 27.4002 183.591 27.4335 182.391 27.5002C181.191 27.5669 179.924 27.6669 178.591 27.8002C177.258 27.9335 176.024 28.1002 174.891 28.3002C173.824 28.4335 173.224 28.6335 173.091 28.9002C173.024 29.0335 172.924 29.8335 172.791 31.3002C172.724 32.7002 172.624 34.5669 172.491 36.9002C172.424 39.2335 172.358 41.9335 172.291 45.0002C172.224 48.0002 172.191 51.1669 172.191 54.5002C172.191 55.7669 172.258 57.0002 172.391 58.2002C172.524 59.4002 172.724 60.5002 172.991 61.5002C173.258 62.4335 173.591 63.2002 173.991 63.8002C174.458 64.4002 174.991 64.7002 175.591 64.7002C176.458 64.7002 177.258 64.3335 177.991 63.6002C178.724 62.8669 179.391 61.8669 179.991 60.6002C180.591 59.3335 181.124 57.9002 181.591 56.3002C182.058 54.7002 182.458 53.0669 182.791 51.4002C182.991 50.4002 183.224 49.7002 183.491 49.3002C183.758 48.8335 184.158 48.6002 184.691 48.6002C185.158 48.6002 185.558 48.7669 185.891 49.1002C186.291 49.3669 186.491 50.0335 186.491 51.1002C186.491 51.7669 186.458 52.2002 186.391 52.4002C186.191 53.6002 185.791 55.2669 185.191 57.4002C184.658 59.4669 183.891 61.5335 182.891 63.6002C181.958 65.6002 180.791 67.3669 179.391 68.9002C177.991 70.4335 176.358 71.2002 174.491 71.2002C172.691 71.2002 171.124 70.6669 169.791 69.6002C168.458 68.6002 167.324 67.2002 166.391 65.4002C165.524 63.5335 164.858 61.3669 164.391 58.9002C163.924 56.3669 163.691 53.6669 163.691 50.8002V49.9002Z" fill="black"/>
<path d="M222.833 53.8002C222.767 54.7335 222.467 56.0669 221.933 57.8002C221.467 59.4669 220.733 61.1335 219.733 62.8002C218.8 64.4002 217.567 65.8335 216.033 67.1002C214.567 68.3002 212.767 68.9002 210.633 68.9002C208.567 68.9002 206.9 68.3002 205.633 67.1002C204.433 65.9002 203.5 64.2669 202.833 62.2002C202.233 60.0669 201.833 57.5335 201.633 54.6002C201.5 51.6669 201.433 48.4669 201.433 45.0002C201.433 44.4002 201.433 43.6669 201.433 42.8002C201.433 41.8669 201.467 41.0669 201.533 40.4002C200.733 41.8669 199.933 43.7335 199.133 46.0002C198.333 48.2002 197.6 50.5669 196.933 53.1002C196.333 55.6335 195.833 58.2335 195.433 60.9002C195.033 63.5002 194.8 65.9669 194.733 68.3002C194.067 68.4335 193.333 68.6002 192.533 68.8002C191.8 69.0002 190.933 69.1002 189.933 69.1002C189.533 69.1002 189.067 69.0669 188.533 69.0002C188 68.9335 187.467 68.8002 186.933 68.6002C186.4 68.4002 185.933 68.1335 185.533 67.8002C185.2 67.4002 185.033 66.9002 185.033 66.3002C185.033 66.1669 185.133 65.8669 185.333 65.4002C185.6 64.9335 185.733 64.0002 185.733 62.6002V5.1002C185.733 4.16686 185.6 3.53353 185.333 3.2002C185.133 2.86686 185.033 2.46686 185.033 2.0002C185.033 1.73353 185.267 1.53353 185.733 1.4002C186.2 1.2002 186.733 1.06686 187.333 1.0002C187.933 0.866862 188.533 0.800195 189.133 0.800195C189.8 0.733529 190.333 0.700195 190.733 0.700195C192.467 0.700195 194.233 1.06686 196.033 1.80019C195.7 3.60019 195.367 6.00019 195.033 9.0002C194.767 11.9335 194.5 15.0002 194.233 18.2002C193.967 21.3335 193.767 24.3669 193.633 27.3002C193.5 30.1669 193.433 32.4002 193.433 34.0002C193.433 34.2002 193.433 34.4669 193.433 34.8002C193.433 35.0669 193.4 35.8335 193.333 37.1002C193.333 38.3002 193.3 40.2002 193.233 42.8002C193.233 45.4002 193.2 49.0669 193.133 53.8002C193.133 53.7335 193.267 53.1002 193.533 51.9002C193.867 50.7002 194.267 49.2002 194.733 47.4002C195.2 45.6002 195.733 43.6669 196.333 41.6002C197 39.5335 197.667 37.6335 198.333 35.9002C199.067 34.1002 199.8 32.6335 200.533 31.5002C201.267 30.3002 201.967 29.7002 202.633 29.7002C203.367 29.7002 204.367 29.8669 205.633 30.2002C206.967 30.4669 207.8 30.9669 208.133 31.7002C208.4 32.5002 208.667 33.0669 208.933 33.4002C209.267 33.7335 209.533 34.0002 209.733 34.2002C210 34.4002 210.2 34.6002 210.333 34.8002C210.533 35.0002 210.633 35.3002 210.633 35.7002C210.567 35.9002 210.4 36.5669 210.133 37.7002C209.933 38.8335 209.7 40.2669 209.433 42.0002C209.233 43.6669 209.033 45.5335 208.833 47.6002C208.633 49.6002 208.533 51.6002 208.533 53.6002C208.533 56.2669 208.767 58.5669 209.233 60.5002C209.7 62.4335 210.6 63.4002 211.933 63.4002C213.267 63.4002 214.367 63.0002 215.233 62.2002C216.1 61.4002 216.8 60.4002 217.333 59.2002C217.933 58.0002 218.367 56.7335 218.633 55.4002C218.967 54.0002 219.233 52.7669 219.433 51.7002C219.767 50.3002 220.267 49.6002 220.933 49.6002C221.667 49.6002 222.167 49.8669 222.433 50.4002C222.767 50.9335 222.933 51.6335 222.933 52.5002L222.833 53.8002Z" fill="black"/>
<path d="M247.801 52.6002C247.801 54.2669 247.501 56.1335 246.901 58.2002C246.301 60.2669 245.368 62.2002 244.101 64.0002C242.835 65.7335 241.201 67.2002 239.201 68.4002C237.268 69.6002 234.935 70.2002 232.201 70.2002C229.601 70.2002 227.401 69.7335 225.601 68.8002C223.801 67.8669 222.301 66.6002 221.101 65.0002C219.968 63.4002 219.135 61.5335 218.601 59.4002C218.135 57.2002 217.901 54.9002 217.901 52.5002C217.901 50.1669 218.168 47.6002 218.701 44.8002C219.235 42.0002 220.068 39.4002 221.201 37.0002C222.335 34.5335 223.768 32.5002 225.501 30.9002C227.235 29.2335 229.335 28.4002 231.801 28.4002C233.001 28.4002 234.135 28.6669 235.201 29.2002C236.268 29.6669 237.201 30.3002 238.001 31.1002C238.801 31.9002 239.435 32.8335 239.901 33.9002C240.368 34.9669 240.635 36.0669 240.701 37.2002L240.801 38.6002C240.801 40.2002 240.535 41.9669 240.001 43.9002C239.468 45.7669 238.701 47.5335 237.701 49.2002C236.701 50.8002 235.468 52.1669 234.001 53.3002C232.535 54.3669 230.868 54.9002 229.001 54.9002C228.668 54.9002 228.235 54.8669 227.701 54.8002C227.235 54.7335 226.768 54.6335 226.301 54.5002V57.4002C226.301 57.8669 226.435 58.5335 226.701 59.4002C227.035 60.2669 227.501 61.1335 228.101 62.0002C228.701 62.8002 229.468 63.5335 230.401 64.2002C231.401 64.8002 232.601 65.1002 234.001 65.1002C235.935 65.1002 237.501 64.7335 238.701 64.0002C239.968 63.2002 241.001 62.2002 241.801 61.0002C242.601 59.8002 243.201 58.4669 243.601 57.0002C244.068 55.4669 244.435 54.0002 244.701 52.6002C244.901 51.6669 245.101 51.0335 245.301 50.7002C245.501 50.3669 245.835 50.2002 246.301 50.2002C247.301 50.2002 247.801 50.7669 247.801 51.9002V52.6002ZM236.001 37.1002C236.001 36.5669 235.835 36.0002 235.501 35.4002C235.235 34.8002 234.701 34.5002 233.901 34.5002C232.701 34.5002 231.668 35.1335 230.801 36.4002C229.935 37.6669 229.201 39.1335 228.601 40.8002C228.068 42.4002 227.668 43.9669 227.401 45.5002C227.135 46.9669 227.001 47.9335 227.001 48.4002V48.7002C227.001 49.3002 227.035 49.8002 227.101 50.2002C227.235 50.5335 227.601 50.7002 228.201 50.7002H228.701C230.035 50.7002 231.168 50.2002 232.101 49.2002C233.035 48.2002 233.768 47.0002 234.301 45.6002C234.901 44.2002 235.335 42.7669 235.601 41.3002C235.868 39.8335 236.001 38.6335 236.001 37.7002V37.1002Z" fill="black"/>
<path d="M273.254 53.9002C273.254 54.3669 273.088 55.5002 272.754 57.3002C272.488 59.0335 271.954 60.9002 271.154 62.9002C270.421 64.8335 269.388 66.5669 268.054 68.1002C266.788 69.6335 265.154 70.4002 263.154 70.4002C261.021 70.4002 259.321 69.6335 258.054 68.1002C256.788 66.6335 255.821 64.8669 255.154 62.8002C254.488 60.6669 254.054 58.4669 253.854 56.2002C253.654 53.8669 253.554 51.9335 253.554 50.4002C253.554 48.6669 253.654 46.9335 253.854 45.2002C254.054 43.4002 254.188 41.6335 254.254 39.9002C254.254 39.3669 253.988 39.0335 253.454 38.9002C252.921 38.7669 252.421 38.7002 251.954 38.7002C251.154 38.7002 250.654 38.8002 250.454 39.0002C250.254 39.2002 250.121 39.4335 250.054 39.7002L249.654 42.9002C249.388 45.0335 249.088 47.1002 248.754 49.1002C248.488 51.0335 248.154 52.7669 247.754 54.3002C247.421 55.7669 246.988 56.9669 246.454 57.9002C245.988 58.7669 245.421 59.2002 244.754 59.2002H244.654C244.388 59.2002 244.121 59.1335 243.854 59.0002C243.654 58.8669 243.554 58.5335 243.554 58.0002C243.554 57.7335 243.621 57.3335 243.754 56.8002C244.288 54.4669 244.621 52.5335 244.754 51.0002C244.888 49.4669 244.988 48.1002 245.054 46.9002V46.2002C245.054 45.8669 245.054 45.4669 245.054 45.0002C245.121 44.5335 245.154 43.9669 245.154 43.3002V40.7002C245.154 39.9669 245.154 39.2002 245.154 38.4002C245.154 37.6002 245.088 36.7335 244.954 35.8002L244.654 29.9002C244.654 29.5002 244.821 29.1335 245.154 28.8002C245.488 28.4669 245.921 28.1669 246.454 27.9002C246.988 27.6335 247.554 27.4335 248.154 27.3002C248.754 27.1669 249.288 27.1002 249.754 27.1002C250.888 27.1002 251.454 27.8335 251.454 29.3002V29.8002L251.354 32.0002V32.6002C251.354 33.0669 251.454 33.3669 251.654 33.5002C251.854 33.5669 252.254 33.6669 252.854 33.8002H253.154C253.688 33.8669 254.554 33.9335 255.754 34.0002C256.954 34.0669 258.154 34.2002 259.354 34.4002C260.554 34.6002 261.588 34.9335 262.454 35.4002C263.388 35.8002 263.854 36.4002 263.854 37.2002C263.854 37.4669 263.788 37.8669 263.654 38.4002C263.521 38.8669 263.354 39.3669 263.154 39.9002C262.954 40.3669 262.788 40.8002 262.654 41.2002C262.521 41.6002 262.454 41.8669 262.454 42.0002C261.254 46.6002 260.654 51.4002 260.654 56.4002C260.654 56.8002 260.688 57.5335 260.754 58.6002C260.821 59.6669 260.954 60.7669 261.154 61.9002C261.354 63.0335 261.654 64.0335 262.054 64.9002C262.454 65.7669 262.954 66.2002 263.554 66.2002C264.554 66.2002 265.454 65.6002 266.254 64.4002C267.054 63.1335 267.754 61.7002 268.354 60.1002C268.954 58.4335 269.421 56.7669 269.754 55.1002C270.154 53.4335 270.421 52.2002 270.554 51.4002C270.688 50.6669 270.888 50.2335 271.154 50.1002C271.488 49.9002 271.788 49.8002 272.054 49.8002C272.988 49.8002 273.454 50.4002 273.454 51.6002C273.454 51.7335 273.421 52.1002 273.354 52.7002C273.354 53.2335 273.321 53.6335 273.254 53.9002Z" fill="black"/>
</svg>
